<svg xmlns="http://www.w3.org/2000/svg" width="48.077" height="90" viewBox="0 0 48.077 90">
  <path id="QuestionMark" d="M11.022,19.8V-.841H-7.44V19.8ZM29.227-49.174c0-14.744-7.821-21.026-26.282-21.026-10.769,0-21.795,4.487-21.795,4.487l.9,12.949A107.063,107.063,0,0,1,.509-54.815c8.59,0,10.9,3.205,10.9,7.564,0,4.744-1.282,6.667-10.769,14.231C-6.158-27.508-8.594-24.3-8.594-20.969A18.307,18.307,0,0,0-4.619-9.3H9.1v-3.974c0-3.59.513-6.026,9.615-12.949C27.56-32.892,29.227-37.508,29.227-49.174Z" transform="translate(18.85 70.2)" fill="#eee"/>
</svg>
