<svg xmlns="http://www.w3.org/2000/svg" width="53.647" height="38.002" viewBox="0 0 53.647 38.002">
  <g id="icon-controllers" transform="translate(-1531.057 87.316)">
    <path id="Path_123" data-name="Path 123" d="M1546.188-60.538a5.838,5.838,0,0,0,5.825-5.847,5.835,5.835,0,0,0-5.847-5.825,5.835,5.835,0,0,0-5.825,5.836A5.849,5.849,0,0,0,1546.188-60.538Z" transform="translate(3.316 5.396)" fill="#eee"/>
    <path id="Path_8060" data-name="Path 8060" d="M1580.451-79.743c-2.9-8.3-11.953-7.555-11.953-7.555h-21.235s-9.054-.742-11.953,7.555c-1.968,11.22-4.254,23.006-4.254,23.006a8,8,0,0,0,7.36,7.424c4.164-.6,6.367-2.214,6.776-5.943a7.176,7.176,0,0,1-2.893-5.721,7.2,7.2,0,0,1,7.179-7.194,7.207,7.207,0,0,1,7.207,7.18,7.13,7.13,0,0,1-1.415,4.255h5.216a7.149,7.149,0,0,1-1.421-4.24,7.2,7.2,0,0,1,7.18-7.194,7.206,7.206,0,0,1,7.207,7.18,7.152,7.152,0,0,1-2.1,5.091,7.276,7.276,0,0,1-.789.65c.41,3.725,2.614,5.334,6.777,5.938a7.994,7.994,0,0,0,7.36-7.424S1582.419-68.523,1580.451-79.743ZM1551.5-75.112a1.6,1.6,0,0,1-.255,0h-2.266v2.26a1.493,1.493,0,0,1-1.493,1.492A1.493,1.493,0,0,1,1546-72.853v-2.26h-2.266a1.5,1.5,0,0,1-1.615-1.361,1.493,1.493,0,0,1,1.361-1.614,1.324,1.324,0,0,1,.254,0H1546v-2.261a1.475,1.475,0,0,1,1.458-1.493.153.153,0,0,1,.035,0,1.511,1.511,0,0,1,1.5,1.493v2.261h2.261a1.493,1.493,0,0,1,1.615,1.36A1.493,1.493,0,0,1,1551.5-75.112Zm15.741-6.253a1.811,1.811,0,0,1,2.562,0,1.811,1.811,0,0,1,0,2.56,1.792,1.792,0,0,1-2.535.03l-.03-.029h0A1.812,1.812,0,0,1,1567.244-81.365Zm-1.136,6.253a1.793,1.793,0,0,1-2.534.031l-.031-.031a1.812,1.812,0,0,1,0-2.562,1.812,1.812,0,0,1,2.563,0A1.812,1.812,0,0,1,1566.108-75.112Zm3.7,3.687a1.814,1.814,0,0,1-2.563,0l0,0a1.8,1.8,0,0,1-.005-2.551l.005-.005h0a1.81,1.81,0,0,1,2.562,0A1.812,1.812,0,0,1,1569.808-71.425Zm3.7-3.687a1.794,1.794,0,0,1-2.536.028l-.03-.028a1.812,1.812,0,0,1,0-2.562,1.812,1.812,0,0,1,2.563,0A1.813,1.813,0,0,1,1573.5-75.112Z" transform="translate(0 0)" fill="#eee"/>
    <path id="Path_124" data-name="Path 124" d="M1558.542-60.538a5.837,5.837,0,0,0,5.825-5.847,5.835,5.835,0,0,0-5.847-5.825,5.835,5.835,0,0,0-5.825,5.836A5.849,5.849,0,0,0,1558.542-60.538Z" transform="translate(7.729 5.396)" fill="#eee"/>
  </g>
</svg>
