<svg xmlns="http://www.w3.org/2000/svg" width="80" height="80" viewBox="0 0 80 80">
  <path id="insider_icon" data-name="insider icon" d="M-8843.011,10a3.679,3.679,0,0,1-2.626-1.089L-8855.5-.95a7.327,7.327,0,0,0,3.35-6.163,7.35,7.35,0,0,0-7.343-7.341,7.325,7.325,0,0,0-6.162,3.348L-8875-20.457a3.717,3.717,0,0,1,0-5.25l43.212-43.211A3.689,3.689,0,0,1-8829.163-70a3.694,3.694,0,0,1,2.626,1.086l9.309,9.31a7.368,7.368,0,0,0-3.1,5.992,7.351,7.351,0,0,0,7.343,7.343,7.36,7.36,0,0,0,5.992-3.1l9.816,9.817a3.712,3.712,0,0,1,0,5.25l-43.211,43.208A3.686,3.686,0,0,1-8843.011,10Zm6.128-31.621h0l7.514,3.949a1.078,1.078,0,0,0,.5.127,1.08,1.08,0,0,0,.826-.383,1.093,1.093,0,0,0,.243-.88l-1.435-8.366,6.079-5.923a1.076,1.076,0,0,0,.272-1.111,1.092,1.092,0,0,0-.874-.736l-8.4-1.219-3.763-7.616a1.127,1.127,0,0,0-.972-.557,1.137,1.137,0,0,0-.972.557l-3.754,7.616-8.4,1.216a1.08,1.08,0,0,0-.873.739,1.085,1.085,0,0,0,.271,1.109l6.079,5.926-1.435,8.361a1.079,1.079,0,0,0,.433,1.062,1.081,1.081,0,0,0,.635.205,1.075,1.075,0,0,0,.5-.125l7.513-3.949Z" transform="translate(8876.086 70.005)" fill="#eee"/>
</svg>
