<svg xmlns="http://www.w3.org/2000/svg" width="45" height="84.002" viewBox="0 0 45 84.002">
  <g id="mobile" transform="translate(-485.998 -915.999)">
    <g id="Subtraction_226" data-name="Subtraction 226" transform="translate(4560 -15119)" fill="#eee">
      <path d="M -4029.501708984375 16118.5 L -4073.501953125 16118.5 L -4073.501953125 16035.4990234375 L -4029.501708984375 16035.4990234375 L -4029.501708984375 16118.5 Z M -4071.500244140625 16042.5 L -4071.500244140625 16043 L -4071.500244140625 16108.0009765625 L -4071.500244140625 16108.5009765625 L -4071.000244140625 16108.5009765625 L -4031.999267578125 16108.5009765625 L -4031.499267578125 16108.5009765625 L -4031.499267578125 16108.0009765625 L -4031.499267578125 16043 L -4031.499267578125 16042.5 L -4031.999267578125 16042.5 L -4071.000244140625 16042.5 L -4071.500244140625 16042.5 Z" stroke="none"/>
      <path d="M -4030.001708984375 16118 L -4030.001708984375 16035.9990234375 L -4073.001953125 16035.9990234375 L -4073.001953125 16118 L -4030.001708984375 16118 M -4072.000244140625 16042 L -4071.000244140625 16042 L -4031.999267578125 16042 L -4030.999267578125 16042 L -4030.999267578125 16043 L -4030.999267578125 16108.0009765625 L -4030.999267578125 16109.0009765625 L -4031.999267578125 16109.0009765625 L -4071.000244140625 16109.0009765625 L -4072.000244140625 16109.0009765625 L -4072.000244140625 16108.0009765625 L -4072.000244140625 16043 L -4072.000244140625 16042 M -4029.001708984375 16119.0009765625 L -4029.001708984375 16119 L -4074.001953125 16119 L -4074.001953125 16034.9990234375 L -4029.001708984375 16034.9990234375 L -4029.001708984375 16119 L -4029.001708984375 16119.0009765625 Z M -4071.000244140625 16043 L -4071.000244140625 16108.0009765625 L -4031.999267578125 16108.0009765625 L -4031.999267578125 16043 L -4071.000244140625 16043 Z" stroke="none" fill="#eee"/>
    </g>
  </g>
</svg>
