<svg xmlns="http://www.w3.org/2000/svg" width="58.149" height="83.735" viewBox="0 0 58.149 83.735">
  <g id="chairs" transform="translate(10.7 -0.262)">
    <path id="Chairs_icon_default" data-name="Chairs icon default" d="M1374.61-9.134h-4.34a2.12,2.12,0,0,0-2.121,2.119v.9a2.091,2.091,0,0,0,1.717,2.038V3.3A8.142,8.142,0,0,0,1365.043.77l1.491-2.4a20.021,20.021,0,0,0,.333-9.906c-1.8-7.478-1.3-9.962-.672-13.107a37.054,37.054,0,0,0,.679-4.34,9.891,9.891,0,0,0-1.672-7.443,11.821,11.821,0,0,0-5.231-3.28c-2.935-1.123-5.689-7.787-6.424-10.034l-.233-.726h-11.441l-.232.719c-.8,2.414-3.512,8.918-6.348,10.013a11.875,11.875,0,0,0-5.408,3.424,9.777,9.777,0,0,0-1.584,7.236,37.778,37.778,0,0,0,.7,4.419c.637,3.149,1.14,5.638-.663,13.151a19.855,19.855,0,0,0,.324,9.885L1330.242.77a8.115,8.115,0,0,0-4.812,2.528V-4.073a2.1,2.1,0,0,0,1.714-2.038v-.9a2.12,2.12,0,0,0-2.121-2.119h-4.331a2.12,2.12,0,0,0-2.122,2.117v.907a2.119,2.119,0,0,0,2.119,2.119H1322V10.388h1.375a8.138,8.138,0,0,0,7.985,6.589h14.16v3.559h-7v.021l-7.578,3.331.549,1.2a4.182,4.182,0,0,0-2.54,3.082,3.9,3.9,0,0,0-.089.854,4.085,4.085,0,0,0,.165,1.112,4.179,4.179,0,0,0,2.38,2.791,4.027,4.027,0,0,0,3.047.06,4.259,4.259,0,0,0,.942-7.459l3.884-1.707h6.236v1.568a4.241,4.241,0,0,0-2,2.791,4.42,4.42,0,0,0-.084.854,4.288,4.288,0,0,0,.165,1.112,4.179,4.179,0,0,0,2.379,2.791,4.027,4.027,0,0,0,3.047.06,4.237,4.237,0,0,0,.656-7.622V23.839h6.255l3.87,1.7a4.225,4.225,0,0,0-1.712,2.633,4.051,4.051,0,0,0-.084.854,4.381,4.381,0,0,0,2.542,3.9,4.088,4.088,0,0,0,1.612.33,4.047,4.047,0,0,0,1.419-.27,4.252,4.252,0,0,0,.128-7.9l.538-1.2-7.578-3.328v-.023h-7V16.977h14.247a8.136,8.136,0,0,0,7.985-6.589h1.382V-3.991h1.307a2.119,2.119,0,0,0,2.119-2.119v-.9A2.117,2.117,0,0,0,1374.61-9.134ZM1363.061,2.14l-3.615.849L1357.139,6.4h-19.055l-2.3-3.408-3.617-.849a1.162,1.162,0,1,1,.532-2.263L1337.2.93l2.123,3.14H1355.9l2.124-3.14,4.5-1.054a1.162,1.162,0,0,1,.531,2.263Z" transform="translate(-1329.27 50.731)" fill="#eee"/>
  </g>
</svg>
