<?xml version="1.0" encoding="UTF-8" standalone="no"?>
<svg
   width="75"
   height="75"
   viewBox="0 0 75 75"
   version="1.1"
   id="svg57"
   xmlns="http://www.w3.org/2000/svg"
   xmlns:svg="http://www.w3.org/2000/svg">
  <defs
     id="defs61" />
  <g
     id="replacement_parts_icon"
     data-name="replacement parts icon"
     transform="matrix(2.4999885,0,0,2.4999885,-272.30863,-92.251699)">
    <g
       id="Group_1358"
       data-name="Group 1358" />
    <g
       id="g1099"
       transform="matrix(0.49739334,0,0,0.49739334,49.850148,13.650856)">
      <path
         id="Path_8209"
         data-name="Path 8209"
         d="M 157.494,77.628 154.355,77 a 1.393,1.393 0 0 0 -0.3,-0.032 15.627,15.627 0 0 0 -1.532,-3.7 1.547,1.547 0 0 0 0.192,-0.232 l 1.773,-2.665 A 1.563,1.563 0 0 0 154.3,68.4 l -2.744,-2.744 a 1.568,1.568 0 0 0 -1.98,-0.2 l -2.662,1.776 a 1.385,1.385 0 0 0 -0.232,0.192 15.668,15.668 0 0 0 -3.7,-1.532 1.421,1.421 0 0 0 -0.032,-0.3 l -0.627,-3.139 a 1.573,1.573 0 0 0 -1.538,-1.262 H 136.9 a 1.569,1.569 0 0 0 -1.538,1.262 l -0.628,3.139 a 1.42,1.42 0 0 0 -0.032,0.3 15.76,15.76 0 0 0 -3.7,1.532 1.324,1.324 0 0 0 -0.229,-0.192 l -2.665,-1.776 a 1.568,1.568 0 0 0 -1.98,0.2 l -2.74,2.744 a 1.564,1.564 0 0 0 -0.2,1.977 l 1.776,2.665 a 1.611,1.611 0 0 0 0.192,0.232 15.668,15.668 0 0 0 -1.532,3.7 1.42,1.42 0 0 0 -0.3,0.032 l -3.139,0.627 a 1.57,1.57 0 0 0 -1.261,1.538 v 3.88 a 1.572,1.572 0 0 0 1.261,1.538 l 3.139,0.627 a 1.42,1.42 0 0 0 0.3,0.032 15.686,15.686 0 0 0 1.532,3.7 1.558,1.558 0 0 0 -0.192,0.232 l -1.776,2.662 a 1.568,1.568 0 0 0 0.2,1.98 l 2.74,2.743 a 1.564,1.564 0 0 0 1.98,0.195 l 2.665,-1.773 a 1.371,1.371 0 0 0 0.229,-0.192 15.761,15.761 0 0 0 3.7,1.532 1.393,1.393 0 0 0 0.032,0.3 l 0.628,3.139 a 1.565,1.565 0 0 0 1.538,1.261 h 3.879 a 1.569,1.569 0 0 0 1.538,-1.261 l 0.627,-3.139 a 1.394,1.394 0 0 0 0.032,-0.3 15.668,15.668 0 0 0 3.7,-1.532 1.435,1.435 0 0 0 0.232,0.192 l 2.662,1.773 a 1.564,1.564 0 0 0 1.98,-0.195 l 2.744,-2.743 a 1.567,1.567 0 0 0 0.194,-1.98 l -1.773,-2.662 a 1.5,1.5 0 0 0 -0.192,-0.232 15.644,15.644 0 0 0 1.532,-3.7 1.393,1.393 0 0 0 0.3,-0.032 l 3.139,-0.627 a 1.57,1.57 0 0 0 1.262,-1.538 v -3.88 a 1.568,1.568 0 0 0 -1.262,-1.543 z m -18.65,13.591 a 10.113,10.113 0 1 1 10.113,-10.113 10.112,10.112 0 0 1 -10.113,10.113 z"
         fill="#eeeeee" />
      <g
         id="Group_1359"
         data-name="Group 1359">
        <path
           id="Path_8210"
           data-name="Path 8210"
           d="m 178.272,65.189 -1.921,-0.705 a 0.9,0.9 0 0 0 -0.185,-0.049 10.041,10.041 0 0 0 -0.6,-2.486 1.009,1.009 0 0 0 0.143,-0.128 l 1.382,-1.509 a 1,1 0 0 0 0.072,-1.268 l -1.463,-2 a 1,1 0 0 0 -1.232,-0.319 l -1.855,0.86 a 0.863,0.863 0 0 0 -0.166,0.1 10.028,10.028 0 0 0 -2.185,-1.331 0.876,0.876 0 0 0 0.01,-0.193 l -0.088,-2.044 a 1,1 0 0 0 -0.847,-0.948 l -2.451,-0.381 a 1,1 0 0 0 -1.1,0.645 l -0.705,1.921 a 0.861,0.861 0 0 0 -0.049,0.187 10.079,10.079 0 0 0 -2.488,0.6 0.9,0.9 0 0 0 -0.126,-0.143 l -1.509,-1.384 a 1,1 0 0 0 -1.27,-0.07 l -2,1.463 a 1,1 0 0 0 -0.319,1.23 l 0.86,1.858 a 0.932,0.932 0 0 0 0.1,0.165 10.028,10.028 0 0 0 -1.331,2.185 0.88,0.88 0 0 0 -0.193,-0.01 l -2.044,0.088 a 1,1 0 0 0 -0.949,0.847 l -0.381,2.451 a 1,1 0 0 0 0.646,1.1 l 1.921,0.705 a 0.926,0.926 0 0 0 0.187,0.05 10,10 0 0 0 0.6,2.485 1.016,1.016 0 0 0 -0.144,0.128 l -1.383,1.507 a 1,1 0 0 0 -0.07,1.27 l 1.461,2 a 1,1 0 0 0 1.232,0.318 l 1.857,-0.859 a 0.848,0.848 0 0 0 0.164,-0.1 10.083,10.083 0 0 0 2.186,1.331 0.931,0.931 0 0 0 -0.009,0.191 l 0.088,2.045 a 1,1 0 0 0 0.847,0.948 l 2.451,0.381 a 1,1 0 0 0 1.1,-0.646 l 0.7,-1.921 a 0.83,0.83 0 0 0 0.049,-0.185 10,10 0 0 0 2.486,-0.6 0.916,0.916 0 0 0 0.128,0.144 l 1.507,1.381 a 1,1 0 0 0 1.27,0.072 l 2,-1.463 a 1,1 0 0 0 0.318,-1.232 l -0.859,-1.855 a 0.979,0.979 0 0 0 -0.1,-0.166 10.022,10.022 0 0 0 1.331,-2.184 0.927,0.927 0 0 0 0.191,0.009 l 2.044,-0.088 a 1,1 0 0 0 0.948,-0.847 l 0.382,-2.451 a 1,1 0 0 0 -0.639,-1.1 z m -13.115,6.751 a 6.464,6.464 0 1 1 7.381,-5.393 6.464,6.464 0 0 1 -7.381,5.393 z"
           fill="#eeeeee" />
      </g>
    </g>
  </g>
</svg>
