<svg id="icon-razerid" xmlns="http://www.w3.org/2000/svg" width="36" height="36" viewBox="0 0 36 36">
  <g id="Synapse_icon" data-name="Synapse icon" transform="translate(2648 1812)">
    <circle id="Ellipse_26" data-name="Ellipse 26" cx="18" cy="18" r="18" transform="translate(-2648 -1812)" fill="#eee"/>
    <g id="Group_1120" data-name="Group 1120" transform="translate(-2644 -1805)">
      <g id="Path_17" data-name="Path 17" transform="translate(-165.284 -249.868)" fill="none">
        <path d="M189.234,250.465a1,1,0,0,1-.315-.551.388.388,0,0,0-.462.074l-.216.225-.407.162a.72.72,0,0,0-.417-.015.3.3,0,0,1-.173,0,1.011,1.011,0,0,0-.566.035.939.939,0,0,0-.356.063.876.876,0,0,0-.412.336l-.037.047a1.245,1.245,0,0,0-.9.685,1.045,1.045,0,0,0-.071.224,1.911,1.911,0,0,0-.327-.2,2.038,2.038,0,0,0-2.073.3,2.073,2.073,0,0,0-.69,2.15,3.685,3.685,0,0,0,.428,1.049,12.2,12.2,0,0,0,1.745,2.13,10.328,10.328,0,0,1,1.408,1.687c.019.033.037.066.054.1.4.752.324,1.306-.219,1.645a1.37,1.37,0,0,1-.573.2,2.479,2.479,0,0,0-.145-2.064,2.35,2.35,0,0,0-.3-.406,1.529,1.529,0,0,0-1.971-.45.383.383,0,0,0-.148.454.359.359,0,0,0,.028.059.387.387,0,0,0,.382.19,1.049,1.049,0,0,1,.968.581,1.2,1.2,0,0,1-.01,1.244,4.822,4.822,0,0,1-.539-.516l-.067-.072-.04-.043a3.383,3.383,0,0,0-1.924-1.209,3.079,3.079,0,0,0-.408-1.45,4.374,4.374,0,0,0-1.36-1.479,2.687,2.687,0,0,0-.266-.159,3.088,3.088,0,0,0-2.257-2.714,2.715,2.715,0,0,0-2.976,1.138c-.056.084-.111.174-.164.264a12.234,12.234,0,0,0-1.042,2.776,11.581,11.581,0,0,1-.776,2.184c-.019.036-.04.071-.058.105-.217.374-.408.58-.61.645a.409.409,0,0,1-.376-.063c-.2-.139-.154-.423.026-.969a3.343,3.343,0,0,0,.126-.447,1.191,1.191,0,0,0-.2-.946,1.1,1.1,0,0,0-.791-.411,1.181,1.181,0,0,0-1.134.721c-.032.056-.059.106-.08.147a.961.961,0,0,0-.32-.457.944.944,0,0,0-.325-.163,1.025,1.025,0,0,0-.531-.2.347.347,0,0,1-.173-.053.717.717,0,0,0-.432-.1l-.326-.256-.144-.276a1.111,1.111,0,0,0-.948.327.376.376,0,0,0-.049.144.385.385,0,0,0,.292.422l.3.074.344.269a.712.712,0,0,0,.2.367.3.3,0,0,1,.088.148,1,1,0,0,0,.314.471.938.938,0,0,0,.233.275.882.882,0,0,0,.5.188l.059.008a1.26,1.26,0,0,0,1.047.438,1.092,1.092,0,0,0,.23-.051,1.934,1.934,0,0,0-.007.38,2.024,2.024,0,0,0,1.3,1.635,2.1,2.1,0,0,0,2.215-.478,3.717,3.717,0,0,0,.7-.9,12.052,12.052,0,0,0,.981-2.569,10.232,10.232,0,0,1,.764-2.057c.019-.033.04-.065.058-.1.456-.717.974-.932,1.54-.634a1.363,1.363,0,0,1,.459.394,2.5,2.5,0,0,0-1.723,1.158,2.335,2.335,0,0,0-.2.461,1.514,1.514,0,0,0,.594,1.924.388.388,0,0,0,.469-.1.394.394,0,0,0,.037-.053.384.384,0,0,0-.026-.424,1.04,1.04,0,0,1,.021-1.125,1.216,1.216,0,0,1,1.087-.613,4.827,4.827,0,0,1-.178.722l-.029.094c0,.014-.01.033-.017.056a3.35,3.35,0,0,0-.09,2.263,3.081,3.081,0,0,0-1.058,1.077,4.346,4.346,0,0,0-.606,1.911,2.566,2.566,0,0,0-.006.309,3.073,3.073,0,0,0-1.232,3.3,2.705,2.705,0,0,0,2.478,2c.1.006.206.009.312.009a12.359,12.359,0,0,0,2.936-.489,11.685,11.685,0,0,1,2.288-.423l.12,0a1.3,1.3,0,0,1,.866.2.405.405,0,0,1,.134.356c-.019.246-.291.345-.856.462a3.33,3.33,0,0,0-.452.115,1.192,1.192,0,0,0-.72.648,1.086,1.086,0,0,0,.038.887,1.181,1.181,0,0,0,1.194.617c.065,0,.12,0,.168,0a.97.97,0,0,0-.24.5.933.933,0,0,0,.021.362,1.014,1.014,0,0,0,.093.557.338.338,0,0,1,.04.175.71.71,0,0,0,.132.421l-.059.409-.168.262a.384.384,0,0,0,.038.464,2.085,2.085,0,0,1,.722.19.386.386,0,0,0,.371-.493l-.088-.3.062-.43a.714.714,0,0,0,.221-.352.3.3,0,0,1,.085-.15,1,1,0,0,0,.252-.506.926.926,0,0,0,.123-.339.873.873,0,0,0-.086-.524l-.022-.055a1.24,1.24,0,0,0-.144-1.121,1.092,1.092,0,0,0-.16-.173,1.927,1.927,0,0,0,.334-.184,2.018,2.018,0,0,0,.771-1.939,2.084,2.084,0,0,0-1.524-1.67,3.746,3.746,0,0,0-1.127-.156,12.292,12.292,0,0,0-2.726.438,10.366,10.366,0,0,1-2.171.37c-.04,0-.076,0-.112,0-.853-.033-1.3-.374-1.32-1.011a1.354,1.354,0,0,1,.113-.593,2.505,2.505,0,0,0,1.869.907,2.359,2.359,0,0,0,.5-.055,1.52,1.52,0,0,0,1.377-1.473.385.385,0,0,0-.32-.354.358.358,0,0,0-.065-.006.386.386,0,0,0-.356.235,1.051,1.051,0,0,1-.989.544,1.214,1.214,0,0,1-1.077-.63,4.871,4.871,0,0,1,.717-.208l.1-.022.058-.013a3.382,3.382,0,0,0,2.014-1.054,3.111,3.111,0,0,0,1.466.373,4.4,4.4,0,0,0,1.967-.434,2.778,2.778,0,0,0,.272-.15,3.1,3.1,0,0,0,3.489-.59,2.687,2.687,0,0,0,.5-3.134c-.046-.09-.1-.182-.148-.273a12.272,12.272,0,0,0-1.894-2.287,11.63,11.63,0,0,1-1.512-1.76c-.022-.034-.042-.069-.062-.1a1.284,1.284,0,0,1-.256-.849.405.405,0,0,1,.242-.293c.223-.107.445.08.83.507a3.246,3.246,0,0,0,.326.332,1.2,1.2,0,0,0,.924.3,1.1,1.1,0,0,0,.753-.478,1.171,1.171,0,0,0-.06-1.338c-.032-.056-.063-.1-.088-.143a.975.975,0,0,0,.557-.046.949.949,0,0,0,.3-.2,1.023,1.023,0,0,0,.44-.358.342.342,0,0,1,.132-.122.715.715,0,0,0,.3-.325l.386-.154.312.014a.385.385,0,0,0,.35-.573Zm-10.581,6.914a2.668,2.668,0,0,1,.367.853,1.291,1.291,0,0,1-.013.76c-.083.186-.334.186-.426-.228A5.353,5.353,0,0,1,178.654,257.379Zm-.5,4.068a5.421,5.421,0,0,1-1.24.63,2.672,2.672,0,0,1,.56-.743,1.3,1.3,0,0,1,.668-.369C178.341,260.944,178.467,261.16,178.154,261.447Zm2.792-.327a1.31,1.31,0,0,1-.655-.391c-.12-.165,0-.381.411-.254a5.367,5.367,0,0,1,1.169.757,2.7,2.7,0,0,1-.927-.112Z" stroke="none"/>
        <path d="M 188.7370758056641 249.8681335449219 C 188.6338806152344 249.8681335449219 188.5320892333984 249.9091796875 188.4571838378906 249.9872741699219 L 188.2411956787109 250.2118530273438 L 187.8343505859375 250.3739318847656 C 187.7589874267578 250.34814453125 187.6802520751953 250.3351745605469 187.6014251708984 250.3351745605469 C 187.5395355224609 250.3351745605469 187.4775695800781 250.3431701660156 187.4171142578125 250.3591918945313 C 187.3878936767578 250.3682250976563 187.3576202392578 250.3727416992188 187.3273315429688 250.3727416992188 C 187.2993927001953 250.3727416992188 187.2714385986328 250.368896484375 187.2442932128906 250.3612060546875 C 187.1706695556641 250.3445434570313 187.0957641601563 250.3362426757813 187.02099609375 250.3362426757813 C 186.904541015625 250.3362426757813 186.7883911132813 250.3563537597656 186.6778411865234 250.396240234375 C 186.6722564697266 250.3961486816406 186.6666870117188 250.3960876464844 186.6611022949219 250.3960876464844 C 186.5450897216797 250.3960876464844 186.4300384521484 250.4176025390625 186.3218078613281 250.4595336914063 C 186.1182098388672 250.5260620117188 185.9973907470703 250.6817626953125 185.9093780517578 250.7952880859375 C 185.8985900878906 250.8092041015625 185.8845825195313 250.8270874023438 185.8721771240234 250.8418579101563 C 185.3161315917969 250.983642578125 185.0721130371094 251.2898559570313 184.9692993164063 251.5267944335938 C 184.9373321533203 251.5986328125 184.91357421875 251.6738586425781 184.8984985351563 251.7509765625 C 184.7963714599609 251.6751098632813 184.6869049072266 251.609619140625 184.5716705322266 251.5554809570313 C 184.336669921875 251.4480590820313 184.0768432617188 251.3958435058594 183.8129119873047 251.3958435058594 C 183.350830078125 251.3958435058594 182.8760223388672 251.5558166503906 182.4986877441406 251.8597412109375 C 181.867431640625 252.3677978515625 181.6158142089844 253.151123046875 181.8082427978516 254.0101013183594 C 181.8957824707031 254.3796691894531 182.0400085449219 254.7335815429688 182.2358856201172 255.0593872070313 C 182.6759033203125 255.8160095214844 183.33837890625 256.5144958496094 183.9804229736328 257.1898803710938 C 184.5472717285156 257.7872009277344 185.0821075439453 258.3494873046875 185.3881378173828 258.8767395019531 C 185.4073333740234 258.9097595214844 185.4253387451172 258.9424438476563 185.442138671875 258.9742736816406 C 185.8397674560547 259.7265319824219 185.7661743164063 260.2800598144531 185.2233123779297 260.6189270019531 C 185.0497741699219 260.7272033691406 184.8539886474609 260.7952575683594 184.6504821777344 260.8180541992188 C 184.8424987792969 260.2605285644531 184.9264984130859 259.4800415039063 184.5052642822266 258.7536926269531 C 184.4203186035156 258.6080017089844 184.3198547363281 258.4718017578125 184.2056579589844 258.3475036621094 C 183.7589721679688 257.8602600097656 183.2968139648438 257.7082824707031 182.9184875488281 257.7082824707031 C 182.6246032714844 257.7082824707031 182.3812866210938 257.7999877929688 182.2350769042969 257.8974914550781 C 182.0860290527344 257.9963989257813 182.0248870849609 258.1844177246094 182.0874481201172 258.3514709472656 C 182.0948638916016 258.3717651367188 182.1040954589844 258.391357421875 182.1150665283203 258.4100341796875 C 182.1846313476563 258.530029296875 182.3128204345703 258.6024475097656 182.4496612548828 258.6024475097656 C 182.4652557373047 258.6024475097656 182.48095703125 258.6015014648438 182.4967041015625 258.5995788574219 C 182.5246276855469 258.5961608886719 182.5528106689453 258.5945129394531 182.5811004638672 258.594482421875 C 182.9100952148438 258.594482421875 183.2562561035156 258.8208312988281 183.4643707275391 259.18017578125 C 183.5583801269531 259.3418579101563 183.7996063232422 259.859130859375 183.4547576904297 260.4242248535156 C 183.2620391845703 260.2664489746094 183.0818939208984 260.0940246582031 182.9159240722656 259.9085388183594 L 182.8487243652344 259.8368530273438 C 182.8383178710938 259.8262023925781 182.8249816894531 259.8118591308594 182.8087158203125 259.7938537597656 C 182.1502838134766 259.0746459960938 181.5050048828125 258.6696472167969 180.8845672607422 258.5844421386719 C 180.8801727294922 258.1109313964844 180.7425384521484 257.6175537109375 180.4765319824219 257.1341247558594 C 180.1444854736328 256.5429382324219 179.6788635253906 256.0367126464844 179.1164093017578 255.6555480957031 C 179.0307769775391 255.5973510742188 178.9417877197266 255.544189453125 178.8499908447266 255.4962463378906 C 178.6335754394531 253.8703308105469 177.5578765869141 253.029296875 176.5933990478516 252.7823486328125 C 176.3569488525391 252.7219848632813 176.1198272705078 252.6926574707031 175.8869018554688 252.6926574707031 C 174.9809265136719 252.6926574707031 174.1359100341797 253.1358337402344 173.6175537109375 253.9205017089844 C 173.5619506835938 254.0049133300781 173.5067291259766 254.0941162109375 173.4539337158203 254.1849060058594 C 172.965087890625 255.0283508300781 172.6838531494141 256.0107421875 172.4118499755859 256.9605102539063 C 172.1806335449219 257.7684631347656 171.9622039794922 258.5318908691406 171.6361694335938 259.1447143554688 C 171.6173706054688 259.1805725097656 171.5961761474609 259.2160339355469 171.5777587890625 259.2498779296875 C 171.3609619140625 259.623779296875 171.1697235107422 259.8296813964844 170.9673156738281 259.8949890136719 C 170.9253845214844 259.9088134765625 170.882080078125 259.9156188964844 170.8390502929688 259.9156188964844 C 170.7506408691406 259.9156188964844 170.6633605957031 259.8869934082031 170.5912780761719 259.8320922851563 C 170.3868713378906 259.6934814453125 170.4368591308594 259.4091491699219 170.6168823242188 258.8628234863281 C 170.6693572998047 258.7168273925781 170.7115936279297 258.5673828125 170.7433013916016 258.4155883789063 C 170.8060913085938 258.0571899414063 170.7341003417969 257.7195129394531 170.5404815673828 257.4694213867188 C 170.3471984863281 257.2269592285156 170.0595703125 257.0775451660156 169.7492065429688 257.0584716796875 C 169.7215881347656 257.05615234375 169.69287109375 257.0548400878906 169.6632385253906 257.0548400878906 C 169.3589019775391 257.0548400878906 168.9559936523438 257.1928100585938 168.6155242919922 257.7792358398438 C 168.5835113525391 257.8349914550781 168.5567169189453 257.8855590820313 168.5355072021484 257.9261779785156 C 168.4775085449219 257.7848205566406 168.3971099853516 257.5956420898438 168.2154846191406 257.4690246582031 C 168.1188659667969 257.3942565917969 168.0085296630859 257.3389282226563 167.8906555175781 257.30615234375 C 167.7360076904297 257.1912231445313 167.5518188476563 257.1221618652344 167.3594207763672 257.1070556640625 C 167.2981414794922 257.1050720214844 167.2385101318359 257.0869445800781 167.1865997314453 257.0544738769531 C 167.0760803222656 256.9893188476563 166.9503173828125 256.9552612304688 166.8227233886719 256.9552612304688 C 166.800048828125 256.9552612304688 166.7773132324219 256.9563293457031 166.7545776367188 256.95849609375 L 166.4281463623047 256.7028503417969 L 166.2841186523438 256.4268798828125 C 166.2166137695313 256.2975463867188 166.0830535888672 256.2192993164063 165.9409332275391 256.2192993164063 C 165.9146270751953 256.2192993164063 165.8880462646484 256.2219848632813 165.8615112304688 256.2275085449219 C 165.691650390625 256.2629699707031 165.5663146972656 256.4066162109375 165.5548553466797 256.5790100097656 C 165.4623107910156 256.6080017089844 165.3840789794922 256.6705322265625 165.3356475830078 256.7542114257813 C 165.3096923828125 256.7984619140625 165.2931060791016 256.8475036621094 165.2868347167969 256.8984069824219 C 165.2623291015625 257.0924987792969 165.3879241943359 257.2740783691406 165.578857421875 257.3204650878906 L 165.8824920654297 257.3945617675781 L 166.2261199951172 257.6633605957031 C 166.2533111572266 257.8022155761719 166.3213958740234 257.9299011230469 166.4217224121094 258.0301208496094 C 166.4649200439453 258.0700073242188 166.4956207275391 258.1214294433594 166.5101470947266 258.17822265625 C 166.5671081542969 258.3618774414063 166.6759948730469 258.5252990722656 166.8237609863281 258.6489562988281 C 166.8827667236328 258.7547912597656 166.9618225097656 258.8482360839844 167.0565795898438 258.9241333007813 C 167.2165985107422 259.0662841796875 167.4122009277344 259.0929870605469 167.5550231933594 259.1120910644531 L 167.6142425537109 259.1204528808594 C 167.9614868164063 259.4754638671875 168.3003234863281 259.5639953613281 168.5527191162109 259.5639953613281 C 168.5910797119141 259.5639953613281 168.6274108886719 259.5619506835938 168.6615142822266 259.5585021972656 C 168.7399749755859 259.5497436523438 168.8172302246094 259.5325317382813 168.8919219970703 259.5071411132813 C 168.8772125244141 259.6332397460938 168.8749237060547 259.7604675292969 168.8851470947266 259.8870239257813 C 168.9515380859375 260.5918579101563 169.4743957519531 261.2489318847656 170.1868438720703 261.521728515625 C 170.4269561767578 261.6136474609375 170.672119140625 261.6588745117188 170.9156799316406 261.6588745117188 C 171.4402618408203 261.6588745117188 171.9575042724609 261.4490661621094 172.4014282226563 261.0438232421875 C 172.6792602539063 260.7824401855469 172.9151000976563 260.4801330566406 173.1006927490234 260.1474609375 C 173.5407257080078 259.3908386230469 173.8151702880859 258.4693298339844 174.0819854736328 257.578125 C 174.3172149658203 256.7916259765625 174.5396270751953 256.0485534667969 174.8456420898438 255.5209350585938 C 174.8644409179688 255.48828125 174.8856506347656 255.4560241699219 174.9032440185547 255.42578125 C 175.2260437011719 254.9179382324219 175.5804443359375 254.6619567871094 175.9608764648438 254.6619262695313 C 176.1174468994141 254.6618957519531 176.2783355712891 254.7052307128906 176.4433746337891 254.7922058105469 C 176.6242370605469 254.8876647949219 176.7811889648438 255.0223999023438 176.9026184082031 255.1864318847656 C 176.3221588134766 255.2995300292969 175.6009063720703 255.61767578125 175.1796722412109 256.3440856933594 C 175.0953216552734 256.4901733398438 175.0270385742188 256.6448974609375 174.9760589599609 256.8055725097656 C 174.61962890625 257.922607421875 175.2084808349609 258.5525817871094 175.5697174072266 258.7294006347656 C 175.6242370605469 258.756103515625 175.6826019287109 258.7690124511719 175.7403717041016 258.7690124511719 C 175.8528442382813 258.7690124511719 175.9630889892578 258.7201538085938 176.0385284423828 258.6294250488281 C 176.0523681640625 258.6128234863281 176.0648193359375 258.5951232910156 176.0757598876953 258.5764770507813 C 176.1531982421875 258.4426879882813 176.1429748535156 258.2757873535156 176.0497589111328 258.1523742675781 C 175.8361206054688 257.8700256347656 175.8445434570313 257.4180603027344 176.0709533691406 257.0278015136719 C 176.1631011962891 256.8690185546875 176.4841003417969 256.4142761230469 177.1272125244141 256.4142150878906 C 177.1373748779297 256.4142150878906 177.1475067138672 256.414306640625 177.1578369140625 256.41455078125 C 177.1173248291016 256.6594848632813 177.0579376220703 256.9009704589844 176.980224609375 257.1369323730469 C 176.97021484375 257.1699523925781 176.9606170654297 257.2010498046875 176.951416015625 257.2304992675781 C 176.9474182128906 257.2448425292969 176.9414215087891 257.2635498046875 176.9342193603516 257.2862548828125 C 176.6374053955078 258.2137145996094 176.6077880859375 258.9723205566406 176.8438110351563 259.5497436523438 C 176.4341735839844 259.7886657714844 176.0733642578125 260.1558227539063 175.7861175537109 260.6269226074219 C 175.4378662109375 261.2086181640625 175.2305145263672 261.863037109375 175.1804656982422 262.5383605957031 C 175.1724090576172 262.6411743164063 175.1705169677734 262.7443542480469 175.1748809814453 262.8473815917969 C 173.8687591552734 263.8457336425781 173.6747283935547 265.1936950683594 173.9431762695313 266.1502075195313 C 174.26318359375 267.2947082519531 175.2372741699219 268.0783996582031 176.4213714599609 268.1469116210938 C 176.5225982666016 268.1528625488281 176.6277923583984 268.1556396484375 176.7333984375 268.1556396484375 C 177.7114715576172 268.1556396484375 178.7067565917969 267.9067687988281 179.6692504882813 267.666259765625 C 180.4877166748047 267.4615478515625 181.2605895996094 267.2680053710938 181.9570465087891 267.242919921875 C 181.9970550537109 267.242919921875 182.0370483398438 267.2405700683594 182.0770721435547 267.2405700683594 C 182.5110931396484 267.2405700683594 182.7855377197266 267.3022766113281 182.9435424804688 267.4444274902344 C 183.0444183349609 267.53369140625 183.0944213867188 267.6668090820313 183.0771484375 267.800048828125 C 183.058349609375 268.0457458496094 182.7863006591797 268.1448974609375 182.2210693359375 268.2623596191406 C 182.0678558349609 268.2901000976563 181.9167938232422 268.3285827636719 181.7690277099609 268.37744140625 C 181.4242095947266 268.5032958984375 181.1689758300781 268.7334594726563 181.0489807128906 269.025390625 C 180.9345855712891 269.3130798339844 180.9484100341797 269.6355895996094 181.0869750976563 269.91259765625 C 181.2197875976563 270.1941528320313 181.5346069335938 270.5298461914063 182.2806701660156 270.5298461914063 C 182.3454742431641 270.5298461914063 182.4006805419922 270.5274658203125 182.4486846923828 270.5250549316406 C 182.3546905517578 270.64453125 182.2298736572266 270.8093872070313 182.2086639404297 271.0280151367188 C 182.19189453125 271.1487426757813 182.198974609375 271.2715759277344 182.2294616699219 271.3895874023438 C 182.2070770263672 271.5804443359375 182.2393798828125 271.7737426757813 182.3226776123047 271.9470825195313 C 182.3515167236328 272.000732421875 182.3653411865234 272.0611267089844 182.3626861572266 272.1219482421875 C 182.3609771728516 272.2726440429688 182.4073486328125 272.4200134277344 182.4950866699219 272.5428466796875 L 182.4358825683594 272.9518127441406 L 182.2674713134766 273.2138366699219 C 182.1738586425781 273.3594970703125 182.1893005371094 273.5494079589844 182.30517578125 273.6782531738281 C 182.3804016113281 273.7619018554688 182.4860229492188 273.8064575195313 182.5934600830078 273.8064575195313 C 182.6515197753906 273.8064575195313 182.7100982666016 273.79345703125 182.7647247314453 273.7665710449219 C 182.8362731933594 273.831787109375 182.9297332763672 273.8680114746094 183.0267333984375 273.8681335449219 C 183.0269012451172 273.8681335449219 183.0270843505859 273.8681335449219 183.0272521972656 273.8681335449219 C 183.0786285400391 273.8681335449219 183.1294555664063 273.8578186035156 183.1767578125 273.8378601074219 C 183.3578338623047 273.7619323730469 183.4529876708984 273.5629272460938 183.3979797363281 273.3751220703125 L 183.3103637695313 273.0764465332031 L 183.3723754882813 272.64599609375 C 183.4795532226563 272.5529479980469 183.5565795898438 272.4302673339844 183.5935821533203 272.2935791015625 C 183.606689453125 272.2364196777344 183.6361541748047 272.1842956542969 183.6783905029297 272.1434326171875 C 183.8095855712891 272.0024719238281 183.897216796875 271.826904296875 183.9308166503906 271.6376953125 C 183.9936676025391 271.533935546875 184.0355224609375 271.4189758300781 184.0540313720703 271.2991943359375 C 184.0980377197266 271.090576171875 184.0228271484375 270.9085693359375 183.9684295654297 270.7755432128906 C 183.9616241455078 270.7592163085938 183.9532012939453 270.7384948730469 183.9460144042969 270.7201843261719 C 184.1012420654297 270.1698608398438 183.9556274414063 269.8082885742188 183.8020172119141 269.5991821289063 C 183.7550964355469 269.5360107421875 183.7014312744141 269.4780883789063 183.6419982910156 269.4263916015625 C 183.7590637207031 269.376220703125 183.8708038330078 269.3145751953125 183.9756317138672 269.2424011230469 C 184.5556793212891 268.8326416015625 184.8657073974609 268.0533142089844 184.7468872070313 267.3030700683594 C 184.6204833984375 266.5066528320313 184.0648345947266 265.8961791992188 183.2227630615234 265.6329345703125 C 182.8754577636719 265.5293884277344 182.514892578125 265.476806640625 182.1525421142578 265.476806640625 C 182.1336364746094 265.476806640625 182.1147766113281 265.4769592285156 182.0958709716797 265.4772338867188 C 181.2185974121094 265.4772338867188 180.2789154052734 265.7002563476563 179.3700408935547 265.915283203125 C 178.5679626464844 266.1056213378906 177.8099212646484 266.2852172851563 177.1986541748047 266.2852172851563 C 177.1586456298828 266.2852172851563 177.123046875 266.2852172851563 177.0870361328125 266.2832336425781 C 176.2337646484375 266.2497863769531 175.7889251708984 265.9096984863281 175.7669372558594 265.2721557617188 C 175.7594909667969 265.0683898925781 175.7981872558594 264.8656311035156 175.8801574707031 264.6787719726563 C 176.2689819335938 265.1232299804688 176.9066162109375 265.5859375 177.7490997314453 265.5859375 C 177.9182281494141 265.5855712890625 178.0868225097656 265.5669860839844 178.2519378662109 265.5305786132813 C 179.4020385742188 265.2793273925781 179.6556701660156 264.4554138183594 179.6288604736328 264.0571594238281 C 179.6174926757813 263.8795776367188 179.4850311279297 263.7330932617188 179.3088226318359 263.7031555175781 C 179.2880859375 263.699462890625 179.2670440673828 263.6975708007813 179.2459716796875 263.6975708007813 C 179.2453155517578 263.6975708007813 179.2446746826172 263.6975708007813 179.2440185546875 263.6975708007813 C 179.2440032958984 263.6975708007813 179.2439575195313 263.6975708007813 179.2439422607422 263.6975708007813 C 179.0888519287109 263.6975708007813 178.9488067626953 263.7899475097656 178.8883819580078 263.93212890625 C 178.7491912841797 264.257080078125 178.3519439697266 264.4757080078125 177.8995208740234 264.4757080078125 C 177.7118835449219 264.4757080078125 177.1394500732422 264.4251403808594 176.8222198486328 263.8453369140625 C 177.0555877685547 263.7578125 177.2953796386719 263.6883239746094 177.5394744873047 263.6374816894531 L 177.6350708007813 263.6151733398438 L 177.6926879882813 263.6023864746094 C 178.6475677490234 263.39453125 179.3224334716797 263.0409240722656 179.7064666748047 262.5487060546875 C 180.1208953857422 262.7816772460938 180.6189422607422 262.909912109375 181.1725921630859 262.9218444824219 C 181.1925811767578 262.922119140625 181.2126159667969 262.9222717285156 181.2325897216797 262.9222717285156 C 181.8928833007813 262.9222717285156 182.5448760986328 262.7738342285156 183.1399536132813 262.4877624511719 C 183.2332458496094 262.4429626464844 183.3238983154297 262.3929748535156 183.4115905761719 262.3380737304688 C 183.8946990966797 262.5372924804688 184.352783203125 262.6219482421875 184.7751922607422 262.6219482421875 C 185.6819458007813 262.6219482421875 186.4247436523438 262.2320251464844 186.9006805419922 261.7478942871094 C 187.7355499267578 260.8988647460938 187.93115234375 259.6683959960938 187.3987121582031 258.613525390625 C 187.3531188964844 258.5231018066406 187.3031158447266 258.4311218261719 187.2503051757813 258.34033203125 C 186.7610626220703 257.4969177246094 186.0469970703125 256.7633666992188 185.3565521240234 256.0537414550781 C 184.769287109375 255.450439453125 184.21484375 254.8810119628906 183.8444213867188 254.2932434082031 C 183.8228149414063 254.2590026855469 183.8020172119141 254.2243041992188 183.7820129394531 254.1904602050781 C 183.565185546875 253.8165588378906 183.4815826416016 253.5485534667969 183.5263824462891 253.3414916992188 C 183.5533905029297 253.2098999023438 183.6442108154297 253.1002502441406 183.768798828125 253.0487670898438 C 183.8100280761719 253.0290222167969 183.8512878417969 253.0193176269531 183.8935394287109 253.0193176269531 C 184.0795593261719 253.019287109375 184.2853393554688 253.2074279785156 184.5992889404297 253.5553283691406 C 184.6998291015625 253.6737976074219 184.8087768554688 253.7848815917969 184.9253082275391 253.8878173828125 C 185.1650543212891 254.0886535644531 185.4414978027344 254.1951904296875 185.7133636474609 254.1951904296875 C 185.7590484619141 254.1951904296875 185.8045501708984 254.1921997070313 185.8497772216797 254.1861267089844 C 186.1575775146484 254.1403503417969 186.431396484375 253.9666442871094 186.6030578613281 253.7082214355469 C 186.7814788818359 253.4529724121094 186.9158782958984 253.0137329101563 186.5426483154297 252.37060546875 C 186.51025390625 252.314453125 186.4798431396484 252.2666625976563 186.4546203613281 252.22802734375 C 186.5234069824219 252.2373962402344 186.60302734375 252.2477416992188 186.6880950927734 252.2477416992188 C 186.7910308837891 252.2477416992188 186.9019622802734 252.2326049804688 187.011474609375 252.1822509765625 C 187.1247863769531 252.1360473632813 187.22802734375 252.0684509277344 187.3155212402344 251.983154296875 C 187.4932403564453 251.907470703125 187.6457977294922 251.783203125 187.7555389404297 251.624755859375 C 187.7878112792969 251.572998046875 187.8333892822266 251.5307922363281 187.8875427246094 251.5025024414063 C 188.0193481445313 251.4285278320313 188.1242370605469 251.3149108886719 188.1871948242188 251.1779479980469 L 188.5727996826172 251.0242309570313 L 188.8848419189453 251.0381774902344 C 188.8889007568359 251.0382995605469 188.8929748535156 251.0383605957031 188.8970336914063 251.0383605957031 C 189.0318298339844 251.0383605957031 189.1573181152344 250.9683837890625 189.2275848388672 250.8531799316406 C 189.2999877929688 250.7344970703125 189.3026123046875 250.5862731933594 189.2344665527344 250.4651489257813 C 189.204833984375 250.4139404296875 189.1637573242188 250.3701782226563 189.1144561767578 250.3373107910156 C 189.1523895263672 250.1685180664063 189.0726470947266 249.9952697753906 188.91943359375 249.9136962890625 C 188.8618621826172 249.8830261230469 188.7992095947266 249.8681335449219 188.7370758056641 249.8681335449219 M 178.8474884033203 259.1117858886719 C 178.7485656738281 259.1117858886719 178.6364898681641 259.01220703125 178.5811767578125 258.7640380859375 C 178.5003509521484 258.4004821777344 178.6167602539063 257.6904296875 178.6535797119141 257.3790283203125 C 178.8248443603516 257.639892578125 178.948974609375 257.9285583496094 179.0203857421875 258.2319946289063 C 179.1040191650391 258.5903930664063 179.0652160644531 258.8639831542969 179.0075836181641 258.9922180175781 C 178.9741973876953 259.0669860839844 178.9137878417969 259.1117858886719 178.8474884033203 259.1117858886719 M 181.725830078125 261.2357177734375 C 181.4612121582031 261.2357177734375 181.1978302001953 261.1968078613281 180.9441680908203 261.1199035644531 L 180.9453582763672 261.1199035644531 C 180.5909271240234 261.0127868652344 180.3733215332031 260.8411560058594 180.2904968261719 260.7288818359375 C 180.1958160400391 260.5987854003906 180.2535552978516 260.4367370605469 180.4817657470703 260.4367370605469 C 180.5427856445313 260.4367065429688 180.6159820556641 260.4483032226563 180.7017364501953 260.4751892089844 C 181.0589752197266 260.5874938964844 181.6182250976563 261.0430603027344 181.8710479736328 261.2318115234375 C 181.8226470947266 261.2344055175781 181.7742004394531 261.2357177734375 181.725830078125 261.2357177734375 M 176.9134063720703 262.0772399902344 C 177.0550994873047 261.7990112304688 177.2446441650391 261.5476379394531 177.4734649658203 261.3345336914063 C 177.743896484375 261.0824890136719 178.0007171630859 260.9801330566406 178.14111328125 260.9653930664063 C 178.1502990722656 260.9643859863281 178.1593475341797 260.9639282226563 178.1681976318359 260.9639282226563 C 178.3517608642578 260.9639282226563 178.4523468017578 261.17333984375 178.1535186767578 261.4468383789063 C 177.8775177001953 261.6985168457031 177.2014312744141 261.9533996582031 176.9134063720703 262.0772399902344 M 188.7370758056641 249.3681335449219 C 188.8821105957031 249.3681335449219 189.0264587402344 249.4041748046875 189.1545257568359 249.472412109375 C 189.4107055664063 249.6087951660156 189.5780334472656 249.8595275878906 189.6156311035156 250.1357116699219 C 189.6342163085938 250.1611022949219 189.6514587402344 250.1874694824219 189.6672058105469 250.2146911621094 L 189.6687469482422 250.2173156738281 L 189.6702423095703 250.2200012207031 C 189.8268890380859 250.4984436035156 189.8208160400391 250.8408508300781 189.6544036865234 251.1135864257813 C 189.49462890625 251.3755798339844 189.2044067382813 251.5383605957031 188.8970336914063 251.5383605957031 C 188.8876800537109 251.5383605957031 188.8782806396484 251.5382385253906 188.8688812255859 251.5379333496094 L 188.8656921386719 251.5378112792969 L 188.8625183105469 251.5376892089844 L 188.6579895019531 251.5285339355469 L 188.5310211181641 251.5791625976563 C 188.4325561523438 251.71923828125 188.3054656982422 251.836669921875 188.1555938720703 251.9250793457031 C 188.0106811523438 252.1288146972656 187.818603515625 252.2929382324219 187.595458984375 252.4043579101563 C 187.4802551269531 252.5030822753906 187.3509979248047 252.5825500488281 187.2099914550781 252.6412353515625 C 187.2086181640625 252.641845703125 187.2072143554688 252.6424560546875 187.2058410644531 252.64306640625 C 187.3955230712891 253.2818298339844 187.1865539550781 253.744140625 187.01611328125 253.9900207519531 C 186.7663421630859 254.3628845214844 186.3683929443359 254.614501953125 185.92333984375 254.6806945800781 L 185.9198150634766 254.6812133789063 L 185.9162902832031 254.6817016601563 C 185.8494720458984 254.6906433105469 185.7812042236328 254.6951904296875 185.7133636474609 254.6951904296875 C 185.3245849609375 254.6951904296875 184.9306793212891 254.5445861816406 184.6042175292969 254.2710876464844 L 184.5991973876953 254.2668762207031 L 184.5942840576172 254.2625427246094 C 184.4621887207031 254.1458435058594 184.3373870849609 254.0188293457031 184.2232666015625 253.8849792480469 C 184.1889953613281 253.8470458984375 184.1575164794922 253.8128051757813 184.1285705566406 253.7818908691406 C 184.152099609375 253.8284301757813 184.1804351806641 253.8808288574219 184.2145385742188 253.9396362304688 C 184.2300262451172 253.9657592773438 184.2482604980469 253.9962768554688 184.2672576904297 254.0263671875 C 184.6095123291016 254.5694580078125 185.1457366943359 255.1203308105469 185.7134399414063 255.7035522460938 L 185.7134857177734 255.7035827636719 L 185.7170104980469 255.7072143554688 C 186.4279174804688 256.4378662109375 187.1630249023438 257.1934204101563 187.6828002929688 258.0894470214844 C 187.7406463623047 258.1889038085938 187.7953948974609 258.2896728515625 187.8451843261719 258.388427734375 C 188.4756927490234 259.6376037597656 188.2449340820313 261.0939636230469 187.2571868896484 262.0984802246094 C 186.6177673339844 262.7489013671875 185.7130889892578 263.1219482421875 184.7752075195313 263.1219482421875 C 184.3386077880859 263.1219482421875 183.8954010009766 263.0437927246094 183.4544525146484 262.8893432617188 C 183.4219665527344 262.9063110351563 183.3892517089844 262.9226989746094 183.3563995361328 262.9384765625 C 182.6981658935547 263.2549438476563 181.9636840820313 263.4222717285156 181.2325897216797 263.4222717285156 C 181.2103576660156 263.4222717285156 181.1880645751953 263.4220886230469 181.1658325195313 263.4217834472656 C 180.6756896972656 263.4112548828125 180.2256622314453 263.3226623535156 179.8211517333984 263.1578979492188 C 179.7686767578125 263.2060241699219 179.7135925292969 263.2526550292969 179.6558685302734 263.2978210449219 C 179.9234008789063 263.4370727539063 180.1075744628906 263.7086791992188 180.1278381347656 264.0252075195313 C 180.1500396728516 264.3548889160156 180.0417175292969 264.8939514160156 179.6270294189453 265.3411560058594 C 180.4451446533203 265.1507873535156 181.2809753417969 264.977783203125 182.0921173095703 264.9772338867188 C 182.1122589111328 264.9769592285156 182.1323852539063 264.976806640625 182.1525421142578 264.976806640625 C 182.5636138916016 264.976806640625 182.9717559814453 265.0363464355469 183.3656158447266 265.1537780761719 L 183.3687896728516 265.1547241210938 L 183.3719482421875 265.1557312011719 C 184.4019775390625 265.4777221679688 185.0831146240234 266.2318420410156 185.2407073974609 267.2247009277344 C 185.3816833496094 268.1148376464844 185.0319213867188 269.0420532226563 184.3651123046875 269.5748291015625 C 184.4903411865234 269.8459777832031 184.5660400390625 270.2128295898438 184.4695281982422 270.6826782226563 C 184.5322875976563 270.8492431640625 184.6034698486328 271.0983276367188 184.5460968017578 271.3885192871094 C 184.5215606689453 271.538330078125 184.4739532470703 271.6815185546875 184.4042053222656 271.8154907226563 C 184.3463287353516 272.0549926757813 184.2305450439453 272.2759704589844 184.0657348632813 272.4606323242188 C 184.0194702148438 272.61279296875 183.9443817138672 272.7530822753906 183.8445434570313 272.8750305175781 L 183.8207550048828 273.0400695800781 L 183.8777618408203 273.234375 C 184.0044555664063 273.6669006347656 183.7861785888672 274.1244812011719 183.3701171875 274.2989501953125 C 183.2616271972656 274.3447265625 183.1459350585938 274.3681335449219 183.0272521972656 274.3681335449219 C 182.9095001220703 274.3679809570313 182.7947235107422 274.344970703125 182.6884765625 274.30126953125 C 182.6569061279297 274.3046875 182.6251678466797 274.3064575195313 182.5934753417969 274.3064575195313 C 182.3419647216797 274.3064575195313 182.1013946533203 274.1993408203125 181.9334411621094 274.0126342773438 C 181.6677551269531 273.7172241210938 181.6321563720703 273.277587890625 181.8468475341797 272.9435119628906 L 181.9565887451172 272.7727661132813 L 181.9756622314453 272.6410827636719 C 181.9031219482422 272.4860534667969 181.8646240234375 272.317626953125 181.8627166748047 272.1439208984375 C 181.7581024169922 271.9180297851563 181.7110290527344 271.6710510253906 181.7248992919922 271.4234008789063 C 181.6963348388672 271.2735595703125 181.6920166015625 271.1211547851563 181.7120819091797 270.9691162109375 C 181.712158203125 270.9684143066406 181.7122344970703 270.9677124023438 181.7122955322266 270.967041015625 C 181.0626678466797 270.8113403320313 180.7656555175781 270.4006042480469 180.6372222900391 270.131103515625 C 180.4375915527344 269.7283325195313 180.4182739257813 269.2583312988281 180.5843658447266 268.8406372070313 L 180.5854339599609 268.8379516601563 L 180.5865173339844 268.8353271484375 C 180.7606964111328 268.4115600585938 181.1197662353516 268.0821533203125 181.5975952148438 267.9077453613281 L 181.6047821044922 267.9051208496094 L 181.6120452880859 267.9027099609375 C 181.7794494628906 267.8473510742188 181.9521179199219 267.8032531738281 182.1253509521484 267.7715454101563 C 182.1701507568359 267.76220703125 182.2112274169922 267.7532958984375 182.2488555908203 267.7448120117188 C 182.1985778808594 267.7421264648438 182.1416168212891 267.7405700683594 182.0770721435547 267.7405700683594 C 182.0619506835938 267.7405700683594 182.0468444824219 267.7410888671875 182.0317230224609 267.7415161132813 C 182.0102844238281 267.7421569824219 181.9888458251953 267.7427368164063 181.9674072265625 267.7428894042969 C 181.3261871337891 267.7672424316406 180.5820617675781 267.953369140625 179.79443359375 268.1503295898438 L 179.7943878173828 268.150390625 L 179.7885284423828 268.1518249511719 C 178.7973175048828 268.3995361328125 177.7723388671875 268.6556396484375 176.7333984375 268.6556396484375 C 176.6151733398438 268.6556396484375 176.5003051757813 268.6524047851563 176.3920288085938 268.6460571289063 C 174.9904479980469 268.56494140625 173.8400268554688 267.6381225585938 173.4616546630859 266.2848510742188 C 173.1675415039063 265.2369384765625 173.3444519042969 263.7451477050781 174.6754150390625 262.6083374023438 C 174.6769561767578 262.5719299316406 174.6791534423828 262.5355529785156 174.6819915771484 262.4993286132813 C 174.7373504638672 261.7522888183594 174.9708557128906 261.0152893066406 175.3571166992188 260.3700866699219 C 175.6122131347656 259.9517211914063 175.9137115478516 259.6081848144531 176.2575225830078 259.3431091308594 C 176.241943359375 259.2735290527344 176.2289581298828 259.2023620605469 176.2185821533203 259.1296997070313 C 176.07763671875 259.2197875976563 175.9123687744141 259.2690124511719 175.7403717041016 259.2690124511719 C 175.6057281494141 259.2690124511719 175.4706268310547 259.2376708984375 175.3496551513672 259.1783447265625 C 175.0500946044922 259.03173828125 174.6333618164063 258.6664123535156 174.452880859375 258.0811462402344 C 174.2096710205078 258.8833312988281 173.9427337646484 259.6928405761719 173.5352325439453 260.3948364257813 C 173.3247375488281 260.771240234375 173.0585632324219 261.1120910644531 172.7440338134766 261.4079895019531 L 172.7413024902344 261.4105834960938 L 172.738525390625 261.4130859375 C 172.2040405273438 261.9010009765625 171.5737152099609 262.1588745117188 170.9156799316406 262.1588745117188 C 170.6084747314453 262.1588745117188 170.3031158447266 262.1016235351563 170.0080871582031 261.9886779785156 C 169.1634063720703 261.6652526855469 168.5318603515625 260.8990783691406 168.4025726318359 260.0567932128906 C 168.1192016601563 260.0296020507813 167.7543182373047 259.917724609375 167.3859252929688 259.5928344726563 C 167.2116851806641 259.5645141601563 166.9594268798828 259.5018920898438 166.734375 259.3066101074219 C 166.6167602539063 259.2107543945313 166.5162353515625 259.0984191894531 166.4345855712891 258.9716491699219 C 166.2552490234375 258.8021545410156 166.1208801269531 258.5918273925781 166.0425720214844 258.3573303222656 C 165.9332275390625 258.2413024902344 165.8486785888672 258.1062927246094 165.7925109863281 257.958984375 L 165.6593017578125 257.8547668457031 L 165.4603271484375 257.8062133789063 C 165.0224304199219 257.6998291015625 164.734375 257.2825927734375 164.790771484375 256.8357849121094 C 164.8052825927734 256.7179565429688 164.8435668945313 256.6048583984375 164.9043884277344 256.5011901855469 C 164.9626007080078 256.4006042480469 165.0400390625 256.3132629394531 165.1315460205078 256.2434387207031 C 165.2456512451172 255.9901123046875 165.4762115478516 255.7971496582031 165.7593231201172 255.7380676269531 C 165.8191070556641 255.7255859375 165.8801574707031 255.7192993164063 165.9409332275391 255.7192993164063 C 166.272705078125 255.7192993164063 166.5740509033203 255.9017639160156 166.7273712158203 256.1955261230469 L 166.8214416503906 256.3757629394531 L 166.9288635253906 256.4598999023438 C 167.0999908447266 256.4749145507813 167.2664947509766 256.5260314941406 167.4168090820313 256.6101379394531 C 167.6660614013672 256.6326904296875 167.90478515625 256.7158203125 168.1134033203125 256.8521728515625 C 168.2567901611328 256.902099609375 168.3904266357422 256.9738464355469 168.5118560791016 257.0662231445313 C 168.5148468017578 257.068359375 168.5177917480469 257.0704650878906 168.5207366943359 257.0726013183594 C 168.9417877197266 256.6322021484375 169.3958587646484 256.5548400878906 169.6632385253906 256.5548400878906 C 169.7036743164063 256.5548400878906 169.7447509765625 256.5564880371094 169.7853851318359 256.5597534179688 C 170.2341003417969 256.5888977050781 170.6515808105469 256.806640625 170.9314575195313 257.1577453613281 L 170.9336700439453 257.1605224609375 L 170.9358367919922 257.163330078125 C 171.2168884277344 257.5263671875 171.3234252929688 258.0017395019531 171.2357940673828 258.5018615722656 L 171.2344055175781 258.5098876953125 L 171.2327270507813 258.5178527832031 C 171.1968536376953 258.6895446777344 171.1487731933594 258.8602600097656 171.0897674560547 259.0253601074219 C 171.073974609375 259.0733947753906 171.0600280761719 259.1171264648438 171.0477142333984 259.1570434570313 C 171.0765075683594 259.1135864257813 171.1080474853516 259.0629577636719 171.1423034667969 259.0040893554688 C 171.1501770019531 258.98974609375 171.1584320068359 258.9751586914063 171.1667785644531 258.9604187011719 C 171.1757049560547 258.9446716308594 171.1848907470703 258.9286499023438 171.193359375 258.9125061035156 C 171.4958953857422 258.3438110351563 171.7072143554688 257.6054382324219 171.9309234619141 256.82373046875 C 172.2118072509766 255.8429260253906 172.5016632080078 254.8308410644531 173.0213470458984 253.9341735839844 C 173.0791168212891 253.8348388671875 173.1390838623047 253.7379150390625 173.1999969482422 253.6454467773438 C 173.8010864257813 252.7355651855469 174.8053894042969 252.1926574707031 175.8868865966797 252.1926574707031 C 176.1642150878906 252.1926574707031 176.4435119628906 252.2280578613281 176.7170562744141 252.2978820800781 C 177.7742767333984 252.5685729980469 178.9814910888672 253.4667663574219 179.3057250976563 255.1819763183594 C 179.3367309570313 255.2015075683594 179.3673400878906 255.2215576171875 179.3974761962891 255.2420043945313 C 180.0202484130859 255.6640625 180.5443267822266 256.2337951660156 180.9124755859375 256.8892822265625 C 181.1480560302734 257.3173828125 181.2959442138672 257.7492065429688 181.3551177978516 258.1795043945313 C 181.4242248535156 258.2010498046875 181.4934844970703 258.2256774902344 181.5626831054688 258.2533874511719 C 181.5495452880859 257.9521179199219 181.6933288574219 257.6569213867188 181.9586181640625 257.4808654785156 C 182.2180633544922 257.307861328125 182.5682678222656 257.2083129882813 182.9184875488281 257.2083129882813 C 183.0471343994141 257.2083129882813 183.1953125 257.2213439941406 183.3563995361328 257.2584228515625 C 182.7827758789063 256.6502685546875 182.2151184082031 256.0172119140625 181.8055267333984 255.31396484375 C 181.5837554931641 254.9443664550781 181.4209899902344 254.5444641113281 181.3217010498047 254.1253356933594 L 181.3209991455078 254.1223754882813 L 181.3203277587891 254.119384765625 C 181.0847473144531 253.0677795410156 181.3999786376953 252.1022033691406 182.1851959228516 251.47021484375 C 182.64501953125 251.099853515625 183.22314453125 250.8958435058594 183.8129119873047 250.8958435058594 C 184.1138153076172 250.8958435058594 184.4003601074219 250.9485778808594 184.6665344238281 251.0528259277344 C 184.8298187255859 250.8243713378906 185.1092987060547 250.5638732910156 185.5791168212891 250.4070739746094 C 185.6924438476563 250.2693786621094 185.8728790283203 250.0841979980469 186.1531524658203 249.9887084960938 C 186.2952728271484 249.9350891113281 186.4434356689453 249.904541015625 186.5946350097656 249.8976135253906 C 186.7330169677734 249.8568725585938 186.8760528564453 249.8362426757813 187.02099609375 249.8362426757813 C 187.122802734375 249.8362426757813 187.2247467041016 249.8465881347656 187.3244934082031 249.8670349121094 C 187.4152069091797 249.8458862304688 187.5081939697266 249.8351745605469 187.6014251708984 249.8351745605469 C 187.6669921875 249.8351745605469 187.7321166992188 249.8404235839844 187.7964019775391 249.850830078125 L 187.9557495117188 249.787353515625 L 188.0968017578125 249.6406860351563 C 188.2628173828125 249.4676208496094 188.496337890625 249.3681335449219 188.7370758056641 249.3681335449219 Z" stroke="none" fill="#1a1a1a"/>
      </g>
      <path id="Path_18" data-name="Path 18" d="M198.169,259.906l-.35-.087.188-.319-.274.285-.664.265a.261.261,0,0,0-.285-.071c-.355.09-.366-.1-.76.046-.08.03-.054-.04-.309.047-.177.058-.276.345-.417.376a.822.822,0,0,0-.544,1.389c.094.131.142.217.095.268s-.114.071-.216-.084a2.722,2.722,0,0,0-.95-.87,1.674,1.674,0,0,0-2.225,2.02c.4,1.8,2.82,3.4,3.6,4.87.574,1.086.232,1.783-.356,2.15a1.8,1.8,0,0,1-1.368.218,2.14,2.14,0,0,0-.141-2.557c-.779-.85-1.47-.39-1.47-.39a1.586,1.586,0,0,1,1.087,2.729,4.413,4.413,0,0,1-.97-.844c-.17-.179-1.083-1.266-2.1-1.138a3.25,3.25,0,0,0-1.57-2.989,2.335,2.335,0,0,0-.41-.223c-.226-2.827-3.316-3.484-4.549-1.619-1,1.522-1.184,3.728-1.963,5.193-.37.695-.952,1.268-1.6.825-.629-.427-.094-1.33-.011-1.8a.709.709,0,0,0-.645-.908c-.513-.043-.782.558-.87.725a.325.325,0,0,1-.572.094c-.089-.1-.127-.37-.28-.478-.22-.154-.214-.08-.282-.132-.336-.252-.4-.08-.716-.262a.266.266,0,0,0-.314,0l-.557-.438-.182-.35.1.346-.37,0,.385.094.562.44a.259.259,0,0,0,.08.281c.256.261.1.366.42.633.066.054-.007.065.195.243.139.124.44.065.536.172a.827.827,0,0,0,1.48-.225c.067-.146.12-.232.186-.216.05.012.12.063.035.228a2.7,2.7,0,0,0-.28,1.254,1.679,1.679,0,0,0,2.869.908c1.365-1.249,1.544-4.13,2.436-5.535.658-1.038,1.435-1.092,2.048-.769a1.787,1.787,0,0,1,.874,1.07,2.156,2.156,0,0,0-2.153,1.4c-.35,1.1.4,1.462.4,1.462a1.589,1.589,0,0,1,1.831-2.3,4.4,4.4,0,0,1-.249,1.258c-.071.236-.56,1.567.06,2.379a3.253,3.253,0,0,0-1.817,2.848,2.3,2.3,0,0,0,.012.466c-2.345,1.609-1.373,4.6.866,4.732,1.826.106,3.835-.843,5.5-.9.789-.029,1.58.186,1.52.97-.057.757-1.11.745-1.56.91A.709.709,0,0,0,190.7,279c.219.464.876.4,1.065.388.422-.017.414.309.368.446s-.258.294-.275.478c-.024.266.037.225.026.309-.052.416.129.384.13.749a.26.26,0,0,0,.16.269l-.1.7-.214.334.251-.259.182.321-.111-.379.1-.705a.259.259,0,0,0,.2-.21c.1-.351.269-.266.34-.679.014-.084.06-.027.114-.29.04-.182-.162-.411-.12-.548.28-.879-.35-1.22-.936-1.164-.16.016-.26.014-.28-.052-.015-.049,0-.134.18-.144a2.751,2.751,0,0,0,1.232-.385,1.666,1.666,0,0,0-.645-2.928c-1.768-.552-4.364.734-6.034.668-1.232-.049-1.667-.692-1.692-1.381a1.779,1.779,0,0,1,.492-1.289,2.157,2.157,0,0,0,2.295,1.157c1.129-.247,1.074-1.072,1.074-1.072a1.6,1.6,0,0,1-2.918-.428,4.463,4.463,0,0,1,1.22-.415c.24-.057,1.643-.3,2.04-1.241a3.282,3.282,0,0,0,3.385.141,2.316,2.316,0,0,0,.4-.242c2.572,1.218,4.689-1.115,3.682-3.112-.821-1.628-2.651-2.884-3.538-4.288-.42-.666-.628-1.455.084-1.8.686-.329,1.2.584,1.572.89a.713.713,0,0,0,1.113-.1c.294-.42-.094-.953-.2-1.112a.323.323,0,0,1,.2-.54c.13-.027.385.075.554,0,.244-.112.177-.144.256-.177.388-.164.269-.3.586-.486a.264.264,0,0,0,.155-.272l.658-.262Zm-10.488,5.854a3.1,3.1,0,0,1,.986,1.633,1.532,1.532,0,0,1-.106,1.075c-.247.428-.916.474-1.094-.394a8.2,8.2,0,0,1,.214-2.315ZM187.668,271a8.3,8.3,0,0,1-2.12.974,3.1,3.1,0,0,1,.928-1.667,1.548,1.548,0,0,1,.988-.446c.494,0,.869.552.2,1.139Zm2.433-.259a1.543,1.543,0,0,1-.882-.629c-.249-.427.045-1.027.89-.746a8.276,8.276,0,0,1,1.908,1.342,3.127,3.127,0,0,1-1.913.032Z" transform="translate(-174.554 -259.116)" fill="#1a1a1a"/>
    </g>
  </g>
</svg>
