<svg id="icon-customs" xmlns="http://www.w3.org/2000/svg" width="35.819" height="37" viewBox="0 0 35.819 37">
  <g id="customs_icon_default" data-name="customs icon default" transform="translate(-2.5 -4.5)">
    <path id="Path_7853" data-name="Path 7853" d="M11.181,18.543a5.347,5.347,0,0,1,10.4-1.76L28.1,10.261l-3.12-3.121a.942.942,0,0,0-1.32,0l-1.52,1.52a11.086,11.086,0,0,0-2.56-1.04V5.46a.948.948,0,0,0-.96-.96H14.462a.924.924,0,0,0-.96.96v2.16a11.087,11.087,0,0,0-2.56,1.04l-1.52-1.52a.942.942,0,0,0-1.32,0L5.18,10.061a.942.942,0,0,0,0,1.32L6.7,12.9a11.089,11.089,0,0,0-1.04,2.561H3.46a.948.948,0,0,0-.96.96v4.121a.924.924,0,0,0,.96.96H5.62a11.089,11.089,0,0,0,1.04,2.561l-1.52,1.52a.907.907,0,0,0,0,1.32l3.12,3.121L14.782,23.5A5.14,5.14,0,0,1,11.181,18.543Z" fill="#eee"/>
    <path id="Union_21" data-name="Union 21" d="M0,17.516,16.582.39a1.281,1.281,0,0,1,1.84,0L22.7,4.711a1.317,1.317,0,0,1,.04,1.841l-4.535,4.519-.3.3L6.161,23.677Z" transform="translate(15.221 11.031)" fill="#eee"/>
    <path id="Path_7910" data-name="Path 7910" d="M783.967,108.206l4.653,4.706s1.142,5.724-11.039,5.684c.079,0-.156,0-.4-.007h-3.829s6.176-1.208,6.443-5.292A5.769,5.769,0,0,1,783.967,108.206Z" transform="translate(-769.5 -77.095)" fill="#eee"/>
  </g>
</svg>
