<svg xmlns="http://www.w3.org/2000/svg" width="60" height="23" viewBox="0 0 60 23"><defs><style>.a{fill:#eee;}.b,.d{fill:none;}.b{stroke:#eee;stroke-width:0.25px;}.c{stroke:none;}</style></defs><g transform="translate(-0.5 -0.5)"><g transform="translate(0.5 0.5)"><path class="a" d="M60.092.5H.5V2.866H7.943V18.88H10.5V2.866h50V.5Z" transform="translate(-0.5 -0.5)"/><path class="a" d="M61.65,2.47H2.47V4.025H9.915V20.04h1.734V4.025h50Z" transform="translate(-2.058 -2.065)"/><path class="a" d="M61.889,99.91H2.95v2.551H62.3V99.91Z" transform="translate(-2.437 -79.461)"/><rect class="a" width="58.527" height="1.738" transform="translate(0.925 20.857)"/><path class="a" d="M95.316,21H93.042v5.573H81.026V21H78.34V35.253h2.686V29.216H93.042v6.037h2.686V21Z" transform="translate(-62.057 -16.783)"/><path class="a" d="M95.012,22.93v5.583H82.172V22.93H80.31V36.381h1.862v-6.04h12.84v6.04h1.862V22.93Z" transform="translate(-63.614 -18.316)"/><path class="a" d="M190.722,19.606h-2.584l-5.541,5.18-5.542-5.18h-3.617l7.349,6.864L172.2,34.493h3.617l6.78-6.323,6.78,6.338h3.617l-8.588-8.037,7.349-6.871Z" transform="translate(-136.282 -15.671)"/><path class="a" d="M195.867,35.691l-8.152-7.626,6.914-6.465H192.21L186.5,26.936,180.8,21.6h-2.42l6.916,6.465-8.154,7.626h2.42L186.5,29.2l6.943,6.494Z" transform="translate(-140.189 -17.26)"/><g transform="translate(58 15.706)"><path class="a" d="M1.484,1.987H1.26V.992a2.267,2.267,0,0,1,.368,0,.582.582,0,0,1,.338.075.259.259,0,0,1,.094.214.249.249,0,0,1-.194.209h0a.283.283,0,0,1,.179.239.681.681,0,0,0,.08.259H1.876A.835.835,0,0,1,1.8,1.748c0-.109-.08-.154-.2-.154H1.484Zm0-.557h.1c.124,0,.229-.04.229-.144s-.065-.149-.209-.149a.5.5,0,0,0-.124,0Z" transform="translate(-0.634 -0.476)"/><g class="b"><circle class="c" cx="1" cy="1" r="1"/><circle class="d" cx="1" cy="1" r="0.875"/></g></g></g></g></svg>