<svg id="icon-playstationlogo" xmlns="http://www.w3.org/2000/svg" width="46.66" height="36" viewBox="0 0 36.181 27.92">
  <path id="playstation" d="M35.831,53.374A6.781,6.781,0,0,1,33.394,54.9L20.512,59.524V56.113l9.478-3.379c1.074-.383,1.244-.93.364-1.219a6.353,6.353,0,0,0-3.53.182l-6.312,2.23V50.385a22.268,22.268,0,0,1,4.755-1.055,18.732,18.732,0,0,1,8.178.974C36.221,51.182,36.535,52.483,35.831,53.374Zm-14.095-5.81V38.834c0-1.024-.188-1.966-1.149-2.236-.735-.239-1.193.446-1.193,1.47V59.919L13.5,58.048V32a70.977,70.977,0,0,1,8.115,2.223c4.993,1.715,6.683,3.85,6.683,8.655,0,4.679-2.889,6.457-6.564,4.686ZM2.686,55.755c-2.852-.8-3.329-2.481-2.029-3.442A13.938,13.938,0,0,1,3.9,50.749l8.448-3V51.17l-6.08,2.173c-1.074.383-1.237.93-.364,1.219a6.353,6.353,0,0,0,3.53-.182l2.914-1.062v3.065a19.111,19.111,0,0,1-9.667-.628Z" transform="translate(0.029 -32)" fill="#eee"/>
</svg>
