<svg xmlns="http://www.w3.org/2000/svg" width="28" height="28" viewBox="0 0 28 28"><defs><style>.a{fill:#eee;}</style></defs><g transform="translate(-193.12 833.001)"><path class="a" d="M16.437,27.966c-.086-.035-.093-1.316-.093-13.96,0-7.665.019-13.948.042-13.964S17.563,0,18.954,0A23.126,23.126,0,0,1,22,.086a7.2,7.2,0,0,1,5.9,5.821c.083.423.095,1.416.095,8.064,0,8.33.012,8.041-.354,9.132a8.522,8.522,0,0,1-.435,1.014,7.24,7.24,0,0,1-5.56,3.825c-.334.035-2.068.057-3.447.057C17.271,28,16.5,27.99,16.437,27.966Zm2.749-13.42a3.338,3.338,0,0,0-.023,1.636,2.814,2.814,0,0,0,5.359.138,3.022,3.022,0,0,0,0-1.844,2.834,2.834,0,0,0-1.949-1.809,2.814,2.814,0,0,0-3.391,1.879ZM9.8,27.985a26.1,26.1,0,0,1-4.009-.122A7.27,7.27,0,0,1,.152,22.2c-.117-.54-.124-.7-.141-7.681C-.019,6.924,0,6.349.254,5.37A7.239,7.239,0,0,1,5.995.093,37.41,37.41,0,0,1,9.948.007c3.4-.007,3.5,0,3.555.1.04.082.059,4.512.059,13.915,0,12.684-.008,13.8-.094,13.89-.06.06-.239.082-1.42.082C11.524,28,10.8,27.992,9.8,27.985ZM9,2.267c-2.48.007-2.836.042-3.6.348A4.983,4.983,0,0,0,2.393,6.2c-.122.573-.122,15,.007,15.584a4.916,4.916,0,0,0,3.641,3.79,12.238,12.238,0,0,0,2.839.145l2.361.03V2.262ZM6.887,11a1.785,1.785,0,0,1-.991-.231A2.629,2.629,0,0,1,4.651,9.52a1.81,1.81,0,0,1-.238-.951,2.572,2.572,0,0,1,.862-2.157A3.09,3.09,0,0,1,6.495,5.8,2.663,2.663,0,0,1,9.62,8a2.62,2.62,0,0,1-1.805,2.9,1.779,1.779,0,0,1-.672.111C7.068,11.009,6.984,11.007,6.887,11Z" transform="translate(193.12 -833.001)"/></g></svg>