<svg id="icon-xboxlogo" xmlns="http://www.w3.org/2000/svg" width="30" height="30" viewBox="0 0 22 22">
  <path id="xbox" d="M24.095,21.71c1.965,2.408,2.87,4.382,2.413,5.264-.35.67-2.515,1.978-4.108,2.479a12.078,12.078,0,0,1-4.454.452,11.035,11.035,0,0,1-4.884-1.73c-1.238-.807-1.517-1.14-1.517-1.8,0-1.326,1.459-3.65,3.957-6.3a19.9,19.9,0,0,1,3.611-3.22,34.9,34.9,0,0,1,4.981,4.856Zm-8.042-7.734a12.893,12.893,0,0,0-3.833-2.812c-.674-.226-.723-.213-1.273.359a10.991,10.991,0,0,0-2.675,5.428,8.568,8.568,0,0,0-.186,2.683A11.351,11.351,0,0,0,9.882,25c.421.647.537.767.413.439a5.233,5.233,0,0,1,.421-2.838,33.881,33.881,0,0,1,5.336-8.621Zm13.822,2.816c-.75-3.548-2.994-5.778-3.309-5.778a4.14,4.14,0,0,0-1.6.616,19.208,19.208,0,0,0-2.852,2.342c1.881,2.364,4.533,6.182,5.452,8.971a5.313,5.313,0,0,1,.328,2.319c-.075.377-.075.377.062.2a13.442,13.442,0,0,0,1.127-1.929,13.014,13.014,0,0,0,.825-2.6A14.4,14.4,0,0,0,29.875,16.792ZM13.955,9.506c2.116-.111,4.866,1.53,5.07,1.57a8.829,8.829,0,0,0,.958-.43c2.835-1.379,4.17-1.144,4.764-1.118a10.986,10.986,0,0,0-10.375-.519C13.333,9.5,13.307,9.537,13.955,9.506Z" transform="translate(-8.043 -7.951)" fill="#eee"/>
</svg>
