<svg xmlns="http://www.w3.org/2000/svg" viewBox="0 0 32 32"><defs><style>.cls-1{fill:#44d62c;}</style></defs><title>icon</title><g id="Layer_2" data-name="Layer 2"><path class="cls-1" d="M16,30A14,14,0,1,1,30,16,14,14,0,0,1,16,30ZM16,3.06A12.94,12.94,0,1,0,28.94,16,12.95,12.95,0,0,0,16,3.06Z"/><path class="cls-1" d="M23.46,12.34a5.59,5.59,0,0,1-1.59.44,2.81,2.81,0,0,0,1.22-1.53,5.68,5.68,0,0,1-1.76.67,2.77,2.77,0,0,0-4.79,1.89,3.2,3.2,0,0,0,.07.63,7.8,7.8,0,0,1-5.7-2.89,2.76,2.76,0,0,0-.38,1.39,2.79,2.79,0,0,0,1.23,2.31,2.78,2.78,0,0,1-1.25-.35v0a2.76,2.76,0,0,0,2.22,2.71,2.52,2.52,0,0,1-.73.1,3,3,0,0,1-.52-.05,2.76,2.76,0,0,0,2.59,1.92,5.58,5.58,0,0,1-3.44,1.19c-.23,0-.45,0-.66,0a7.88,7.88,0,0,0,12.12-6.64c0-.12,0-.24,0-.35a5.56,5.56,0,0,0,1.38-1.44"/></g></svg>