<svg id="icon-goldpins" xmlns="http://www.w3.org/2000/svg" width="50" height="14" viewBox="0 0 50 14">
  <g id="Razer_Gold_PINS_icon" data-name="Razer Gold PINS icon" transform="translate(1826.999 1385)">
    <path id="Subtraction_135" data-name="Subtraction 135" d="M-8572-1450h-42a4.006,4.006,0,0,1-4-4v-6a4,4,0,0,1,4-4h42a4,4,0,0,1,4,4v6A4,4,0,0,1-8572-1450Zm-11.229-5.609.786,1.607,1.111-.731-.85-1.609,1.633.071v-1.536l-1.568.073.785-1.536-1.111-.733-.785,1.611-.783-1.611-1.176.733.85,1.609-1.568-.074v1.538l1.568-.147h0v0l-.851,1.608,1.176.731Zm-6.7,0,.786,1.607,1.111-.731-.85-1.609,1.633.071v-1.536l-1.568.073.785-1.536-1.111-.733-.785,1.611-.783-1.611-1.176.733.85,1.609-1.568-.074v1.538l1.568-.147h0v0l-.851,1.608,1.176.731Zm-6.7,0,.786,1.607,1.111-.731-.85-1.609,1.633.071v-1.536l-1.568.073.785-1.536-1.111-.733-.785,1.611-.783-1.611-1.177.733.851,1.609-1.57-.074v1.538l1.57-.147h0v0l-.852,1.608,1.177.731Zm-6.7,0,.786,1.607,1.109-.731-.848-1.609,1.633.071v-1.536l-1.568.073.783-1.536-1.109-.733-.785,1.611-.783-1.611-1.177.733.851,1.609-1.57-.074v1.538l1.57-.147h0v0l-.852,1.608,1.177.731Z" transform="translate(6790.999 79)" fill="#eee"/>
  </g>
</svg>
