<svg xmlns="http://www.w3.org/2000/svg" width="26.01" height="36" viewBox="0 0 26.01 36"><defs><style>.cls-1{fill:#eee;}</style></defs><g id="Layer_2" data-name="Layer 2"><g id="Layer_1-2" data-name="Layer 1"><path class="cls-1" d="M16,20A10,10,0,1,0,6,10,10,10,0,0,0,16,20Zm3.15-5.85H12.59l2-3.43h-1.3l.52-.91h5l-.53.92H16.84l-.93,1.62h4.3ZM13.63,4.92H20.2l-2,3.43h1.45l-.53.91h-5l.53-.91h1.31l.94-1.62h-4.3Z"/><path class="cls-1" d="M25.46,20.1H8.13v1H24.77L22.18,31H8.3L5.5,18.41A.55.55,0,0,0,5,18H0v1.05H4.53l2.8,12.54a.55.55,0,0,0,.53.41H22.6a.55.55,0,0,0,.53-.4L26,20.75a.52.52,0,0,0-.1-.45A.54.54,0,0,0,25.46,20.1Z"/><circle class="cls-1" cx="11.5" cy="34.5" r="1.5"/><circle class="cls-1" cx="19.5" cy="34.5" r="1.5"/></g></g></svg>