<svg id="icon-giftcards" xmlns="http://www.w3.org/2000/svg" width="46.004" height="28.004" viewBox="0 0 46.004 28.004">
  <g id="Razer.com_Gift_Card_icon" data-name="Razer.com Gift Card icon" transform="translate(2120.002 1392.999)">
    <path id="Subtraction_134" data-name="Subtraction 134" d="M-9095.237-1434.475v0H-9112a4.006,4.006,0,0,1-4-4v-20a4,4,0,0,1,4-4h14.877l13.54,7.818-11.654,20.183Zm-12.94-11.18h0l-1.551,2.759.517.414a7.6,7.6,0,0,0,2.862,1.24v2.1h3.311v-2.242a5.745,5.745,0,0,0,2.137-1.38,3.891,3.891,0,0,0,1.068-2.688,3.827,3.827,0,0,0-.966-2.656,8.145,8.145,0,0,0-2.931-1.894,5.162,5.162,0,0,1-2.033-1.386l-.009-.013c-.009-.015-.014-.022-.019-.022s0,0,0,.007a.633.633,0,0,1,.307-.586,1.757,1.757,0,0,1,1.1-.311,3.253,3.253,0,0,1,2.14.654l.688.586,1.757-2.9-.723-.412a11.144,11.144,0,0,0-2.343-.9v-2.208h-3.311v2.276a4.911,4.911,0,0,0-2,1.24,3.781,3.781,0,0,0-1,2.656c0,1.7,1.392,3.161,4.137,4.345.55.217,1.828.8,1.828,1.585a.879.879,0,0,1-.38.76,2.147,2.147,0,0,1-1.343.377,3.869,3.869,0,0,1-2.517-.826l-.726-.588Zm34.178,11.176h-18.924l11.074-19.183,11.854,6.842v8.339A4.007,4.007,0,0,1-9074-1434.478Zm4-14.65h0l-10.852-6.265,4.091-7.085H-9074a4.006,4.006,0,0,1,4,4v9.352Zm-12.585-7.265h0l-10.539-6.085h14.053l-3.512,6.085Z" transform="translate(6995.998 69.479)" fill="#eee"/>
  </g>
</svg>
