<svg xmlns="http://www.w3.org/2000/svg" width="35" height="36" viewBox="0 0 35 36"><defs><style>.cls-1{fill:#eee;}</style></defs><g id="Layer_2" data-name="Layer 2"><g id="Layer_1-2" data-name="Layer 1"><path class="cls-1" d="M4.67,18.47a12,12,0,0,1,6.22-4.06H6.29l1.9-3.28H6.94l.51-.87h4.8l-.5.87H10.37l-.9,1.55h3.76a12,12,0,0,1,5.35-7.81,10.13,10.13,0,0,0-2.5-2.8A9.91,9.91,0,0,0,10,0,10,10,0,0,0,0,10a10,10,0,0,0,4.67,8.46ZM7.28,5.59h6.29l-1.9,3.28h1.38l-.5.88H7.75l.51-.88H9.5l.89-1.55H6.28Z"/><path class="cls-1" d="M14,16A10,10,0,1,0,24,26,10,10,0,0,0,14,16Zm-2.71,5.59h6.28l-1.9,3.28h1.39l-.51.88h-4.8l.5-.88H13.5l.9-1.55H10.29Zm5.28,8.82H10.29l1.9-3.28H10.94l.51-.88h4.81l-.51.88H14.36l-.9,1.55h4.12l-1,1.73Z"/><path class="cls-1" d="M25,5a10,10,0,0,0-10,9,11.94,11.94,0,0,1,7.38,3.41l.78-1.32H21.94l.51-.88h4.81l-.51.88H25.36l-.9,1.54h4.11l-1,1.74H24A12,12,0,0,1,26,25h0A10,10,0,0,0,25,5Zm1.67,8.88h1.38l-.5.87h-4.8l.5-.87h0s.29,0,.83,0h.41l.9-1.55H21.28l1-1.73h6.28Z"/></g></g></svg>