<svg xmlns="http://www.w3.org/2000/svg" width="36" height="36" viewBox="0 0 36 36"><defs><style>.cls-1{fill:#eee;}</style></defs><g id="Layer_2" data-name="Layer 2"><g id="Layer_1-2" data-name="Layer 1"><path id="Subtraction_124-2" data-name="Subtraction 124-2" class="cls-1" d="M18,36A18,18,0,0,1,1.42,11,17.91,17.91,0,0,1,5.27,5.27,17.94,17.94,0,0,1,18,0,18,18,0,0,1,36,18a17.9,17.9,0,0,1-5.27,12.73A18,18,0,0,1,18,36ZM14.75,20l-3.43,5.9H22.63l1.81-3.12H17L18.66,20h2.5l.91-1.58H13.42L12.5,20Zm4-6.86L17.11,16H14.86l-.92,1.57h8.65L23.51,16H21l3.42-5.91H13.12l-1.81,3.12Z"/></g></g></svg>