<svg xmlns="http://www.w3.org/2000/svg" width="41.999" height="36.004" viewBox="0 0 41.999 36.004"><defs><style>.a{fill:#eee;}</style></defs><path class="a" d="M-8004.734,1070v0l2.529-7.675A16.189,16.189,0,0,1-8006,1052a15.708,15.708,0,0,1,1.65-7.007,18.064,18.064,0,0,1,4.5-5.722,21.415,21.415,0,0,1,6.674-3.858A23.9,23.9,0,0,1-7985,1034a23.909,23.909,0,0,1,8.174,1.415,21.415,21.415,0,0,1,6.675,3.858,18.064,18.064,0,0,1,4.5,5.722A15.708,15.708,0,0,1-7964,1052a15.7,15.7,0,0,1-1.65,7.006,18.062,18.062,0,0,1-4.5,5.721,21.417,21.417,0,0,1-6.675,3.858A23.909,23.909,0,0,1-7985,1070a23.3,23.3,0,0,1-12.154-3.321l-7.577,3.324Zm30.235-20.456-.1.492-4.161,6.1,1.5.434,4.248-6.363.48-2.073h-4.944l-.328,1.412Zm-11.332,5.449h0l-.346,1.131c.237.08.492.153.755.217.227.054.486.1.771.145a5.737,5.737,0,0,0,.87.066,4.339,4.339,0,0,0,1.4-.215,3.286,3.286,0,0,0,1.075-.6,2.639,2.639,0,0,0,.691-.914,2.771,2.771,0,0,0,.243-1.163,3.531,3.531,0,0,0-.04-.555,1.543,1.543,0,0,0-.133-.416,1.164,1.164,0,0,0-.233-.315,1.974,1.974,0,0,0-.35-.261,3.2,3.2,0,0,0,.667-.44,2.225,2.225,0,0,0,.45-.526,2.157,2.157,0,0,0,.249-.631,3.525,3.525,0,0,0,.074-.757,1.555,1.555,0,0,0-.583-1.33,3.042,3.042,0,0,0-1.806-.434,4.709,4.709,0,0,0-.862.076,7.311,7.311,0,0,0-.721.169,5.618,5.618,0,0,0-.685.247l-.165,1.083c.218-.027.452-.053.675-.076.2-.018.419-.038.661-.054s.471-.026.715-.026a1.27,1.27,0,0,1,.824.213.718.718,0,0,1,.255.577,1.132,1.132,0,0,1-.062.356,1.624,1.624,0,0,1-.165.342,1.663,1.663,0,0,1-.243.305,2.072,2.072,0,0,1-.292.245,1.662,1.662,0,0,1-.312.171.926.926,0,0,1-.305.07l-1.551.07-.3,1.224,1.511.024a2.524,2.524,0,0,1,.5.052.828.828,0,0,1,.315.141.527.527,0,0,1,.17.227.857.857,0,0,1,.048.3,1.3,1.3,0,0,1-.128.589,1.327,1.327,0,0,1-.346.442,1.564,1.564,0,0,1-.5.279,1.836,1.836,0,0,1-.595.1c-.108,0-.217,0-.333-.006l-.166-.006h-.007l-.184-.007c-.124-.006-.247-.014-.366-.024l-.229-.017h-.02l-.1-.007C-7985.279,1055.054-7985.538,1055.029-7985.831,1055Zm-6.721,0h0l-.346,1.131c.239.08.494.154.758.217.223.054.482.1.77.145a5.727,5.727,0,0,0,.87.066,4.339,4.339,0,0,0,1.4-.215,3.271,3.271,0,0,0,1.075-.6,2.639,2.639,0,0,0,.691-.914,2.77,2.77,0,0,0,.243-1.163,3.177,3.177,0,0,0-.041-.555,1.551,1.551,0,0,0-.132-.416,1.178,1.178,0,0,0-.233-.315,1.938,1.938,0,0,0-.35-.261,3.314,3.314,0,0,0,.669-.44,2.249,2.249,0,0,0,.448-.526,2.152,2.152,0,0,0,.25-.631,3.554,3.554,0,0,0,.076-.757,1.554,1.554,0,0,0-.585-1.33,3.042,3.042,0,0,0-1.806-.434,4.7,4.7,0,0,0-.862.076,7.264,7.264,0,0,0-.721.169,5.679,5.679,0,0,0-.686.247l-.165,1.083c.3-.036.492-.058.675-.076s.419-.038.661-.054.474-.026.715-.026a1.269,1.269,0,0,1,.824.213.72.72,0,0,1,.255.577,1.058,1.058,0,0,1-.062.356,1.6,1.6,0,0,1-.165.342,1.67,1.67,0,0,1-.243.305,2.037,2.037,0,0,1-.292.245,1.557,1.557,0,0,1-.311.171.92.92,0,0,1-.306.07l-1.551.07-.3,1.224,1.511.024a2.491,2.491,0,0,1,.5.052.821.821,0,0,1,.315.141.521.521,0,0,1,.171.227.868.868,0,0,1,.05.3,1.3,1.3,0,0,1-.131.589,1.331,1.331,0,0,1-.345.442,1.575,1.575,0,0,1-.5.279,1.84,1.84,0,0,1-.595.1c-.1,0-.216,0-.333-.006l-.174-.007-.184-.007c-.128-.007-.251-.015-.365-.024l-.281-.021h-.006l-.063,0C-7992,1055.054-7992.261,1055.029-7992.552,1055Zm-3.046-4.917v0l-1.382,6.355h1.646l1.822-8.3h-1.422l-3.066,1.728.446,1.3,1.955-1.078Z" transform="translate(8006 -1034)"/></svg>