<svg id="icon-wallpapers" xmlns="http://www.w3.org/2000/svg" width="36" height="28" viewBox="0 0 36 28">
  <g id="Wallpapers_icon" data-name="Wallpapers icon" transform="translate(-951 -67.999)">
    <path id="Subtraction_145" data-name="Subtraction 145" d="M-7975,24h-28a4,4,0,0,1-4-4V0a4.006,4.006,0,0,1,4-4h28a4.006,4.006,0,0,1,4,4V20A4,4,0,0,1-7975,24Zm-18.08-6.047h0a1.007,1.007,0,0,0,.305.046h14.766a.985.985,0,0,0,.881-.526.986.986,0,0,0-.045-1.026l-7.385-11.185a1,1,0,0,0-.834-.449,1,1,0,0,0-.836.449l-6.844,10.371-2.773-4.322a1,1,0,0,0-.842-.46,1,1,0,0,0-.842.46l-3.3,5.148a.984.984,0,0,0-.037,1.019.986.986,0,0,0,.877.521h6.609a.989.989,0,0,0,.3-.046ZM-7994.3,2a3.5,3.5,0,0,0-3.5,3.5,3.5,3.5,0,0,0,3.5,3.5,3.5,3.5,0,0,0,3.5-3.5A3.5,3.5,0,0,0-7994.3,2Z" transform="translate(8958 72)" fill="#eee"/>
  </g>
</svg>
