<svg id="icon-insider" xmlns="http://www.w3.org/2000/svg" width="31.454" height="31.455" viewBox="0 0 31.454 31.455">
  <path id="insider_icon" data-name="insider icon" d="M-8862.1-37.465a2.972,2.972,0,0,1-2.122-.88l-2.979-2.976a2.993,2.993,0,0,0,1.37-2.519,3,3,0,0,0-3-3,2.985,2.985,0,0,0-2.517,1.37l-2.773-2.773a3.007,3.007,0,0,1,0-4.243l15.559-15.556a2.972,2.972,0,0,1,2.121-.878,2.977,2.977,0,0,1,2.12.878l2.755,2.755a3.014,3.014,0,0,0-1.265,2.448,3,3,0,0,0,3,3,3.01,3.01,0,0,0,2.448-1.265l2.96,2.962a2.971,2.971,0,0,1,.88,2.12,2.964,2.964,0,0,1-.88,2.12l-15.554,15.556A2.983,2.983,0,0,1-8862.1-37.465Zm2.5-12.3h0l3.069,1.615a.436.436,0,0,0,.205.051.446.446,0,0,0,.338-.158.437.437,0,0,0,.1-.359l-.586-3.419,2.483-2.419a.445.445,0,0,0,.111-.454.444.444,0,0,0-.356-.3l-3.433-.5-1.534-3.112a.468.468,0,0,0-.4-.225.459.459,0,0,0-.4.225l-1.533,3.112-3.432.5a.436.436,0,0,0-.356.3.445.445,0,0,0,.111.454l2.483,2.419-.586,3.417a.444.444,0,0,0,.174.434.45.45,0,0,0,.262.084.443.443,0,0,0,.206-.05l3.069-1.615Z" transform="translate(8874.999 68.92)" fill="#eee"/>
</svg>
