<svg id="icon-esports" xmlns="http://www.w3.org/2000/svg" xmlns:xlink="http://www.w3.org/1999/xlink" width="34" height="32" viewBox="0 0 34 32">
  <defs>
    <clipPath id="clip-path">
      <rect id="Rectangle_586" data-name="Rectangle 586" width="34" height="32" transform="translate(2799 -16193)" fill="none" stroke="#707070" stroke-width="1"/>
    </clipPath>
  </defs>
  <g id="ESports_icon" data-name="ESports icon" transform="translate(-2799 16193)" clip-path="url(#clip-path)">
    <g id="ESports_icon-2" data-name="ESports icon" transform="translate(4886.628 -14663.373)">
      <g id="Group_1199" data-name="Group 1199" transform="translate(-2060.503 -1530.628) rotate(45)">
        <path id="Subtraction_167" data-name="Subtraction 167" d="M7.7,28.637H3.278l-.467-3.122,5.521-.931L7.7,28.636ZM9.789,15.3h0L1.079,13.936,0,6.713,5.543,0l3.82,4.587,1.773,2.127L9.789,15.3Z" transform="translate(0 0)" fill="#eee"/>
        <g id="Subtraction_168" data-name="Subtraction 168" transform="translate(3.182 31.024)" fill="none">
          <path d="M2.773,8.751H2a2,2,0,0,1-2-2V0H4.773V6.75A2,2,0,0,1,2.773,8.751Z" stroke="none"/>
          <path d="M 2.772900104522705 7.750699996948242 C 3.324190139770508 7.750699996948242 3.772700071334839 7.3017897605896 3.772700071334839 6.75 L 3.772700071334839 1 L 1.00000011920929 1 L 1.00000011920929 6.75 C 1.00000011920929 7.3017897605896 1.44851016998291 7.750699996948242 1.999800205230713 7.750699996948242 L 2.772900104522705 7.750699996948242 M 2.772900104522705 8.750699996948242 L 1.999800205230713 8.750699996948242 C 0.8971101641654968 8.750699996948242 1.548767158965347e-07 7.853189945220947 1.548767158965347e-07 6.75 L 1.548767158965347e-07 -1.525878978725359e-09 L 4.772700309753418 -1.525878978725359e-09 L 4.772700309753418 6.75 C 4.772700309753418 7.853189945220947 3.875590085983276 8.750699996948242 2.772900104522705 8.750699996948242 Z" stroke="none" fill="#eee"/>
        </g>
        <g id="Rectangle_582" data-name="Rectangle 582" transform="translate(0.796 27.842)" fill="none" stroke="#eee" stroke-width="1">
          <rect width="9.546" height="3.977" rx="1.989" stroke="none"/>
          <rect x="0.5" y="0.5" width="8.546" height="2.977" rx="1.489" fill="none"/>
        </g>
        <path id="Path_7993" data-name="Path 7993" d="M5.543,28.638,0,21.924,3.277,0H7.7l3.438,21.924L9.365,24.051Z" transform="translate(14.319 14.319) rotate(90)" fill="#eee"/>
      </g>
      <g id="Group_1200" data-name="Group 1200" transform="translate(-2052.628 -1502.503) rotate(135)">
        <path id="Path_7994" data-name="Path 7994" d="M5.543,28.638,0,21.924,3.277,0H7.7l3.438,21.924L9.365,24.051Z" transform="translate(0 11.137)" fill="#eee"/>
        <g id="Subtraction_169" data-name="Subtraction 169" transform="translate(3.182 0)" fill="none">
          <path d="M4.773,8.751H0V2A2,2,0,0,1,2,0h.773a2,2,0,0,1,2,2V8.75Z" stroke="none"/>
          <path d="M 3.772700071334839 7.750699996948242 L 3.772700071334839 1.999799966812134 C 3.772700071334839 1.448510050773621 3.324190139770508 1 2.772900104522705 1 L 1.999800205230713 1 C 1.44851016998291 1 1.00000011920929 1.448510050773621 1.00000011920929 1.999799966812134 L 1.00000011920929 7.750699996948242 L 3.772700071334839 7.750699996948242 M 4.772700309753418 8.750699996948242 L 4.771700382232666 8.750699996948242 L 1.548767158965347e-07 8.750699996948242 L 1.548767158965347e-07 1.999799966812134 C 1.548767158965347e-07 0.8971099853515625 0.8971101641654968 -1.525878978725359e-09 1.999800205230713 -1.525878978725359e-09 L 2.772900104522705 -1.525878978725359e-09 C 3.875590085983276 -1.525878978725359e-09 4.772700309753418 0.8971099853515625 4.772700309753418 1.999799966812134 L 4.772700309753418 8.749699592590332 L 4.772700309753418 8.750699996948242 Z" stroke="none" fill="#eee"/>
        </g>
        <g id="Rectangle_585" data-name="Rectangle 585" transform="translate(0.795 7.955)" fill="none" stroke="#eee" stroke-width="1">
          <rect width="9.546" height="3.977" rx="1.989" stroke="none"/>
          <rect x="0.5" y="0.5" width="8.546" height="2.977" rx="1.489" fill="none"/>
        </g>
      </g>
    </g>
  </g>
</svg>
