<svg id="icon-events" xmlns="http://www.w3.org/2000/svg" width="36.002" height="32.999" viewBox="0 0 36.002 32.999">
  <g id="Events_icon" data-name="Events icon" transform="translate(1768 1516)">
    <path id="Subtraction_138" data-name="Subtraction 138" d="M-10536-1555h-28a4,4,0,0,1-4-4v-16h36v16A4,4,0,0,1-10536-1555Zm-5-14a3,3,0,0,0-3,3,3,3,0,0,0,3,3,3,3,0,0,0,3-3A3,3,0,0,0-10541-1569Zm-9,0a3,3,0,0,0-3,3,3,3,0,0,0,3,3,3,3,0,0,0,3-3A3,3,0,0,0-10550-1569Zm-9,0a3,3,0,0,0-3,3,3,3,0,0,0,3,3,3,3,0,0,0,3-3A3,3,0,0,0-10559-1569Zm27-8h-36v-2a4.006,4.006,0,0,1,4-4h4v2a1,1,0,0,0,1,1,1,1,0,0,0,1-1v-2h16v2a1,1,0,0,0,1,1,1,1,0,0,0,1-1v-2h4a4.006,4.006,0,0,1,4,4v2Z" transform="translate(8800 72)" fill="#eee"/>
    <path id="Subtraction_139" data-name="Subtraction 139" d="M-10544-1580h-2v-2a1,1,0,0,1,1-1,1,1,0,0,1,1,1v2Zm-18,0h-2v-2a1,1,0,0,1,1-1,1,1,0,0,1,1,1v2Z" transform="translate(8804 67)" fill="#eee"/>
  </g>
</svg>
