<svg xmlns="http://www.w3.org/2000/svg" width="31.271" height="37.172" viewBox="0 0 31.271 37.172">
  <g id="icon-getstarted" transform="translate(0.556 0.501)">
    <g id="Get_started_icon_default" data-name="Get started icon default" transform="translate(-1093.371 256.471)">
      <path id="Subtraction_165" data-name="Subtraction 165" d="M-7534.635-302.173a.787.787,0,0,1-.352-.082l.445-.07.3.047A.8.8,0,0,1-7534.635-302.173Zm2.546-.345a.79.79,0,0,1-.423-.122l1.03-.161a.791.791,0,0,1-.562.281A.361.361,0,0,1-7532.089-302.518Zm-5.193-.007h0a.8.8,0,0,1-.531-.31l.495.077.037.232Zm7.936-.383a.492.492,0,0,1-.37-.168l.812-.127-.011.019-.011.019-.01.017A.47.47,0,0,1-7529.346-302.908Zm-10.578,0a.47.47,0,0,1-.409-.241l-.05-.083.853.129A.49.49,0,0,1-7539.924-302.908Zm5.382-.739h0l-.885-.138v-7.107a.793.793,0,0,1,.792-.792.793.793,0,0,1,.792.792v7.136l-.7.109Zm1.634-.255h0a15.234,15.234,0,0,1,1.419-7.607,5.794,5.794,0,0,1,1.694-2.1.8.8,0,0,1,.433-.128.792.792,0,0,1,.665.359.8.8,0,0,1-.224,1.092c-.1.076-2.543,1.942-2.408,8.137l-1.579.246Zm-3.452-.029h0l-1.579-.246c.129-6.173-2.3-8.033-2.407-8.109a.8.8,0,0,1-.224-1.092.792.792,0,0,1,.666-.359.8.8,0,0,1,.432.128c.136.09,3.328,2.278,3.112,9.677Zm6.7-.478h0a13.554,13.554,0,0,1,3.057-6.708.447.447,0,0,1,.327-.138.5.5,0,0,1,.451.282l1.194,2.552a.465.465,0,0,1-.173.588,12.526,12.526,0,0,0-3.137,3.157l-1.717.268Zm-9.956-.029h0l-1.737-.271a12.478,12.478,0,0,0-3.115-3.126.467.467,0,0,1-.172-.588l1.2-2.552a.493.493,0,0,1,.447-.282.446.446,0,0,1,.326.138,13.552,13.552,0,0,1,3.055,6.679Zm18.774-5.533a.4.4,0,0,1-.235-.076l-1.075-.781-1.079.781a.388.388,0,0,1-.232.075.4.4,0,0,1-.234-.075.4.4,0,0,1-.143-.444l.412-1.264-1.077-.783a.392.392,0,0,1-.144-.442.394.394,0,0,1,.375-.275h1.335l.409-1.266a.378.378,0,0,1,.377-.246.376.376,0,0,1,.375.246l.412,1.266h1.331a.4.4,0,0,1,.377.275.4.4,0,0,1-.142.442l-1.077.783.409,1.266a.392.392,0,0,1-.144.442A.379.379,0,0,1-7520.839-309.972Zm-24.969,0a.384.384,0,0,1-.233-.076l-1.077-.781-1.079.781a.387.387,0,0,1-.231.075.4.4,0,0,1-.235-.075.4.4,0,0,1-.142-.444l.412-1.264-1.077-.783a.4.4,0,0,1-.144-.442.4.4,0,0,1,.377-.275h1.329l.414-1.268a.4.4,0,0,1,.377-.273.4.4,0,0,1,.377.275l.41,1.266H-7545a.4.4,0,0,1,.377.275.4.4,0,0,1-.142.442l-1.077.783.41,1.266a.388.388,0,0,1-.144.442A.383.383,0,0,1-7545.808-309.972Zm13.571-2.358a.4.4,0,0,1-.233-.076l-2.165-1.574-2.163,1.574a.394.394,0,0,1-.233.075.394.394,0,0,1-.233-.075.39.39,0,0,1-.142-.442l.825-2.546-2.163-1.572a.4.4,0,0,1-.146-.442.4.4,0,0,1,.377-.275h2.675l.827-2.544a.378.378,0,0,1,.377-.246.379.379,0,0,1,.377.246l.827,2.544h2.675a.393.393,0,0,1,.375.275.394.394,0,0,1-.144.442l-2.163,1.572.827,2.546a.39.39,0,0,1-.144.442A.4.4,0,0,1-7532.237-312.33Z" transform="translate(8643.005 64)" fill="#eee" stroke="rgba(0,0,0,0)" stroke-miterlimit="10" stroke-width="1"/>
      <path id="Subtraction_164" data-name="Subtraction 164" d="M-7944.477,20h0V4.37l1.507,2.579.172-.1.018.114,10.946-1.71V16.621a.592.592,0,0,1-.462.576l-12.181,2.8Zm-1.005,0h0l-12.181-2.8a.589.589,0,0,1-.464-.576V5.255l8,1.249,2.948.46.018-.114.172.1,1.509-2.579V20Zm-2.06-14.1h0l-12.437-1.942a.609.609,0,0,1,.048-.117l1.857-3.526a.606.606,0,0,1,.54-.317.664.664,0,0,1,.085.006l12.47,1.749L-7932.4.006a.615.615,0,0,1,.082-.005.6.6,0,0,1,.544.331l1.755,3.524a.547.547,0,0,1,.039.1L-7942.419,5.9l-2.193-3.748-.368.21-.368-.21-2.193,3.748Z" transform="translate(9053.437 -240.471)" fill="#eee" stroke="rgba(0,0,0,0)" stroke-miterlimit="10" stroke-width="1"/>
    </g>
  </g>
</svg>
