<svg id="icon-sustainability" xmlns="http://www.w3.org/2000/svg" width="37.541" height="31.5" viewBox="0 0 37.541 31.5">
  <g id="Sustainability_icon" data-name="Sustainability icon" transform="translate(-879.585 405.702)">
    <path id="Path_7885" data-name="Path 7885" d="M907.781-383.923" transform="translate(2.412 0.964)" fill="none" stroke="#eee" stroke-width="1"/>
    <g id="Group_1156" data-name="Group 1156">
      <path id="Path_7881" data-name="Path 7881" d="M900.8-381.6s7.348,2.095,8.305,2.012a2.435,2.435,0,0,0,1.891-.905.836.836,0,0,0-.07-.894l3.393-2.173s1.17-1.066,1.685-.379-.619,1.72-.619,1.72-8.531,7.258-11.936,7.258c-2.408,0-5.573-1.685-8.22-3.1s-7.086-1.65-7.086-1.65l-2.365-5.578s4.6-2.677,7.765-2.677,11.971,4.3,11.971,4.3l4.2,1.892a.83.83,0,0,1,.322,1.126c-.425.748-2.27.117-2.27.117l-6.642-1.871s-.485-.057-.569.181A.506.506,0,0,0,900.8-381.6Z" transform="translate(0.448 0.265)" fill="none" stroke="#eee" stroke-width="1"/>
      <g id="Group_902" data-name="Group 902" transform="translate(909.188 -384.874)">
        <path id="Path_7882" data-name="Path 7882" d="M908.714-382.212c.859-.466,2.487-1.322,3.16-1.744s1.256-.761.962-1.363-.86-.3-1.733.129-3.114,1.431-4.245,1.938A5.756,5.756,0,0,1,908.714-382.212Z" transform="translate(-906.858 385.657)" fill="none" stroke="#eee" stroke-width="1"/>
      </g>
      <g id="Group_903" data-name="Group 903" transform="translate(907.161 -385.722)">
        <path id="Path_7883" data-name="Path 7883" d="M906.62-383.406c.85-.425,2.58-1.258,3.231-1.619s1.338-.637,1.03-1.169-.869-.242-1.736.156-3.019,1.577-4.147,1.988C905.686-383.786,906.061-383.624,906.62-383.406Z" transform="translate(-904.998 386.482)" fill="none" stroke="#eee" stroke-width="1"/>
      </g>
      <g id="Group_904" data-name="Group 904" transform="translate(905.262 -385.793)">
        <path id="Path_7884" data-name="Path 7884" d="M904.692-384.26c.754-.378,1.461-.7,2.038-1.017s1.187-.566.915-1.038-.772-.215-1.541.138-1.851.98-2.853,1.345C903.827-384.614,904.217-384.469,904.692-384.26Z" transform="translate(-903.251 386.572)" fill="none" stroke="#eee" stroke-width="1"/>
      </g>
      <g id="Group_905" data-name="Group 905" transform="translate(879.585 -384.896)">
        <path id="Path_7886" data-name="Path 7886" d="M886.146-377.247a14.889,14.889,0,0,0-2.134.72c-.954-2.962-2.217-5.711-3.427-8.578.693-.217,1.457-.835,2.113-1.031a1.94,1.94,0,0,1,2.744,1.216c.656,1.407,1.641,3.55,2.21,5.134S887.614-377.593,886.146-377.247Z" transform="translate(-880.585 386.309)" fill="#eee"/>
      </g>
    </g>
    <path id="Path_7887" data-name="Path 7887" d="M902.947-387.491s2.5-1.522,2.193-6.036-3.715-7.688-11.532-9.726c0,0,2.012,4.36,1.975,7.933-.052,5.148.866,6.515.866,6.515s1.416,2.683,4.176,2.2a11.275,11.275,0,0,0,.369-6.948S902.439-391.9,902.947-387.491Z" transform="translate(1.153 -0.871)" fill="#eee"/>
    <path id="Path_7888" data-name="Path 7888" d="M899.662-402.251a10.778,10.778,0,0,1,3.337,2.3,11.685,11.685,0,0,1,3.109-1.806,22.416,22.416,0,0,0-1.974,3.069,8.881,8.881,0,0,1,1.78,4.794s2.8-7.4,5.692-9.906C911.606-403.8,904.992-406.636,899.662-402.251Z" transform="translate(1.687 -1)" fill="#eee"/>
  </g>
</svg>
