<svg xmlns="http://www.w3.org/2000/svg" width="49.771" height="49.999" viewBox="0 0 49.771 49.999">
  <g id="THS_icon" data-name="THS icon" transform="translate(-4.252 -3.864)">
    <g id="Group_2252" data-name="Group 2252" transform="translate(42.647 52.174)">
      <path id="Path_8172" data-name="Path 8172" d="M135.454,168.95h.537v.107h-.207v.639h-.121v-.639h-.209Z" transform="translate(-135.454 -168.95)" fill="#fff"/>
      <path id="Path_8173" data-name="Path 8173" d="M138,168.954h.207l.164.583.164-.583h.208v.744h-.12v-.612H138.6l-.174.581h-.125l-.174-.581h-.016v.612H138Z" transform="translate(-137.252 -168.953)" fill="#fff"/>
    </g>
    <g id="Group_2253" data-name="Group 2253" transform="translate(4.252 3.864)">
      <path id="Path_8174" data-name="Path 8174" d="M96.01,51.146c-.144,1.1-.73,3.421-.443,4.824.37,1.809,1.757,1.712,2.269.82a3.2,3.2,0,0,0,.22-2.24A6.458,6.458,0,0,0,96.01,51.146Zm1.238,5.169c-.173.388-.692.388-.884-.475a11.216,11.216,0,0,1,.15-2.886,5.558,5.558,0,0,1,.761,1.777A2.7,2.7,0,0,1,97.248,56.315Z" transform="translate(-68.79 -37.309)" fill="#fff"/>
      <path id="Path_8175" data-name="Path 8175" d="M86.126,80.306a3.2,3.2,0,0,0-2.05.929,6.459,6.459,0,0,0-1.925,3.474c1.024-.425,3.328-1.079,4.4-2.028C87.931,81.456,87.154,80.3,86.126,80.306Zm-.086,1.749a11.2,11.2,0,0,1-2.574,1.313,5.564,5.564,0,0,1,1.159-1.547,2.7,2.7,0,0,1,1.385-.769C86.431,81.008,86.692,81.458,86.04,82.055Z" transform="translate(-59.355 -57.936)" fill="#fff"/>
      <path id="Path_8176" data-name="Path 8176" d="M53.916,5.107a.808.808,0,0,0-.249-.266.8.8,0,0,0-1.363-.73l-.448.469-.841.337a1.482,1.482,0,0,0-.865-.031.629.629,0,0,1-.358,0,2.092,2.092,0,0,0-1.175.073,1.941,1.941,0,0,0-.738.131,1.825,1.825,0,0,0-.856.7c-.023.029-.051.066-.077.1a2.593,2.593,0,0,0-1.873,1.426,2.226,2.226,0,0,0-.147.467,4.022,4.022,0,0,0-.678-.408,4.211,4.211,0,0,0-4.3.635,4.328,4.328,0,0,0-1.432,4.476,7.728,7.728,0,0,0,.887,2.186,25.315,25.315,0,0,0,3.618,4.438,21.383,21.383,0,0,1,2.919,3.514c.04.068.077.137.112.2.824,1.567.672,2.719-.454,3.425a2.825,2.825,0,0,1-1.188.414,5.186,5.186,0,0,0-.3-4.3,4.868,4.868,0,0,0-.621-.846c-1.646-1.8-3.393-1.4-4.086-.938a.8.8,0,0,0-.306.946.834.834,0,0,0,.057.122.8.8,0,0,0,.792.394,2.176,2.176,0,0,1,2.007,1.21,2.519,2.519,0,0,1-.02,2.591,10.051,10.051,0,0,1-1.119-1.072l-.14-.149-.082-.09A7.007,7.007,0,0,0,36.6,22.02,6.434,6.434,0,0,0,35.757,19a9.087,9.087,0,0,0-2.823-3.08,5.557,5.557,0,0,0-.552-.332A6.415,6.415,0,0,0,27.7,9.934,5.617,5.617,0,0,0,21.529,12.3c-.116.176-.23.361-.339.551a25.488,25.488,0,0,0-2.161,5.782,24.22,24.22,0,0,1-1.609,4.55c-.039.074-.08.148-.121.219-.45.779-.846,1.208-1.266,1.344a.846.846,0,0,1-.78-.131c-.424-.289-.32-.881.053-2.019a6.885,6.885,0,0,0,.262-.932,2.487,2.487,0,0,0-.421-1.972,2.275,2.275,0,0,0-1.64-.856,2.448,2.448,0,0,0-2.351,1.5c-.067.116-.122.222-.166.306a2.006,2.006,0,0,0-.66-.952,1.946,1.946,0,0,0-.674-.339,2.115,2.115,0,0,0-1.1-.412.713.713,0,0,1-.358-.11,1.481,1.481,0,0,0-.9-.2L6.626,18.1l-.3-.575a.8.8,0,0,0-1.512.317.8.8,0,0,0,.049,1.545l.63.154.712.56a1.482,1.482,0,0,0,.406.764.629.629,0,0,1,.183.308,2.091,2.091,0,0,0,.651.981,1.943,1.943,0,0,0,.483.574,1.827,1.827,0,0,0,1.034.392l.123.018a2.593,2.593,0,0,0,2.172.908,2.214,2.214,0,0,0,.478-.107,4.012,4.012,0,0,0-.014.791,4.211,4.211,0,0,0,2.7,3.405,4.328,4.328,0,0,0,4.593-1,7.724,7.724,0,0,0,1.449-1.861A25.3,25.3,0,0,0,22.5,19.926a21.375,21.375,0,0,1,1.584-4.285c.04-.068.08-.135.12-.2.945-1.5,2.019-1.941,3.193-1.32a2.828,2.828,0,0,1,.953.821,5.187,5.187,0,0,0-3.573,2.412,4.871,4.871,0,0,0-.422.961c-.739,2.327.482,3.639,1.231,4.008a.8.8,0,0,0,1-1.2,2.176,2.176,0,0,1,.044-2.343A2.52,2.52,0,0,1,28.875,17.5a10.062,10.062,0,0,1-.369,1.5c-.021.069-.041.134-.059.2-.009.03-.022.069-.037.116a7.007,7.007,0,0,0-.187,4.715,6.434,6.434,0,0,0-2.193,2.244,9.085,9.085,0,0,0-1.256,3.985,5.615,5.615,0,0,0-.012.644,6.416,6.416,0,0,0-2.553,6.88,5.617,5.617,0,0,0,5.138,4.159c.21.012.428.018.647.018a25.517,25.517,0,0,0,6.088-1.02,24.2,24.2,0,0,1,4.745-.882c.084,0,.168,0,.25,0a2.686,2.686,0,0,1,1.8.425.846.846,0,0,1,.277.74c-.039.512-.6.718-1.775.963a7.01,7.01,0,0,0-.938.239,2.486,2.486,0,0,0-1.5,1.35,2.274,2.274,0,0,0,.079,1.848,2.448,2.448,0,0,0,2.475,1.285c.134,0,.253,0,.348-.01a2.007,2.007,0,0,0-.494,1.048,1.951,1.951,0,0,0,.043.753,2.118,2.118,0,0,0,.194,1.16.713.713,0,0,1,.084.365,1.482,1.482,0,0,0,.275.876l-.123.852-.349.546A.8.8,0,0,0,40.5,53.651a.8.8,0,0,0,1.313-.815l-.182-.622.128-.9a1.484,1.484,0,0,0,.459-.734.627.627,0,0,1,.176-.313,2.091,2.091,0,0,0,.524-1.054,1.944,1.944,0,0,0,.255-.7A1.827,1.827,0,0,0,43,47.42c-.014-.034-.032-.077-.046-.115a2.593,2.593,0,0,0-.3-2.335,2.218,2.218,0,0,0-.331-.36,3.993,3.993,0,0,0,.692-.383,4.211,4.211,0,0,0,1.6-4.04,4.328,4.328,0,0,0-3.161-3.478,7.719,7.719,0,0,0-2.336-.325,25.3,25.3,0,0,0-5.653.914,21.4,21.4,0,0,1-4.5.771c-.079,0-.157,0-.232,0-1.769-.07-2.691-.778-2.74-2.106a2.825,2.825,0,0,1,.235-1.236A5.186,5.186,0,0,0,30.1,36.611a4.871,4.871,0,0,0,1.043-.115c2.385-.524,2.911-2.237,2.856-3.07a.8.8,0,0,0-1.539-.261A2.176,2.176,0,0,1,30.41,34.3a2.52,2.52,0,0,1-2.234-1.313,10.029,10.029,0,0,1,1.487-.433l.2-.046.119-.027a7.005,7.005,0,0,0,4.177-2.2,6.432,6.432,0,0,0,3.04.778,9.086,9.086,0,0,0,4.079-.9,5.541,5.541,0,0,0,.564-.312,6.416,6.416,0,0,0,7.235-1.229,5.617,5.617,0,0,0,1.032-6.53c-.095-.188-.2-.38-.308-.569a25.5,25.5,0,0,0-3.927-4.762,24.222,24.222,0,0,1-3.136-3.668c-.044-.071-.088-.143-.129-.214a2.686,2.686,0,0,1-.531-1.768.845.845,0,0,1,.5-.61c.462-.222.923.163,1.722,1.056a6.954,6.954,0,0,0,.676.692,2.486,2.486,0,0,0,1.918.621,2.274,2.274,0,0,0,1.562-.992,2.447,2.447,0,0,0-.125-2.787c-.067-.116-.131-.216-.182-.3a2.011,2.011,0,0,0,1.154-.1,1.946,1.946,0,0,0,.631-.414,2.118,2.118,0,0,0,.908-.748.712.712,0,0,1,.274-.255,1.483,1.483,0,0,0,.621-.676l.8-.32.648.029a.8.8,0,0,0,.731-1.2ZM52.4,5.471l-1.364.546a.55.55,0,0,1-.322.565c-.657.382-.412.672-1.216,1.013-.164.069-.024.136-.53.369-.352.163-.879-.05-1.15.006A.673.673,0,0,0,47.394,9.1c.21.332,1.015,1.441.405,2.317a1.475,1.475,0,0,1-2.307.214c-.764-.638-1.837-2.54-3.26-1.855-1.476.711-1.045,2.355-.175,3.741,1.835,2.925,5.63,5.544,7.333,8.933,2.088,4.156-2.3,9.021-7.636,6.483a4.877,4.877,0,0,1-.828.505c-2.291,1.109-5.258,1.188-7.02-.295-.823,1.959-3.731,2.467-4.23,2.585a9.2,9.2,0,0,0-2.529.863c1.015,3.358,5.141,3.03,6.051.891,0,0,.114,1.72-2.227,2.234A4.467,4.467,0,0,1,26.213,33.3a3.718,3.718,0,0,0-1.025,2.684c.053,1.437.955,2.777,3.51,2.878,3.464.137,8.846-2.543,12.515-1.392a3.476,3.476,0,0,1,1.337,6.1,5.687,5.687,0,0,1-2.554.8c-.385.02-.406.2-.375.3.043.138.25.141.583.109,1.216-.117,2.522.592,1.941,2.424-.091.286.325.763.246,1.141-.111.548-.207.428-.236.6-.147.859-.5.683-.706,1.414a.539.539,0,0,1-.423.437l-.21,1.468.23.789-.377-.668-.521.539.442-.692.21-1.455a.549.549,0,0,1-.329-.561c0-.76-.376-.693-.27-1.559.022-.176-.105-.089-.055-.644.035-.386.483-.736.57-1,.095-.286.112-.966-.763-.93-.393.016-1.756.158-2.209-.808a1.474,1.474,0,0,1,.968-2.1c.935-.343,3.118-.322,3.236-1.9.123-1.633-1.516-2.082-3.153-2.022-3.451.127-7.617,2.1-11.4,1.884-4.644-.27-6.661-6.5-1.8-9.854a4.827,4.827,0,0,1-.024-.97c.185-2.539,1.6-5.148,3.767-5.933-1.286-1.692-.272-4.464-.125-4.956a9.2,9.2,0,0,0,.517-2.621c-3.415-.8-5.195,2.938-3.8,4.795,0,0-1.546-.761-.821-3.045a4.467,4.467,0,0,1,4.466-2.916,3.718,3.718,0,0,0-1.812-2.229c-1.271-.673-2.882-.562-4.247,1.6-1.85,2.932-2.221,8.933-5.052,11.534a3.476,3.476,0,0,1-5.95-1.891,5.684,5.684,0,0,1,.584-2.613c.174-.343.031-.451-.073-.474-.141-.032-.248.145-.386.45a1.713,1.713,0,0,1-3.069.469c-.2-.221-.823-.1-1.111-.357-.419-.37-.267-.393-.4-.506-.671-.557-.342-.774-.872-1.318a.538.538,0,0,1-.167-.586l-1.166-.916-.8-.2.767.008-.206-.72.378.729,1.155.909a.549.549,0,0,1,.651,0c.659.378.788.021,1.485.546.142.107.13-.047.585.275.317.223.4.787.58.993a.673.673,0,0,0,1.187-.2c.182-.348.741-1.6,1.8-1.509a1.475,1.475,0,0,1,1.339,1.891c-.171.981-1.281,2.861.023,3.75,1.353.923,2.562-.272,3.328-1.719,1.615-3.052,1.986-7.648,4.07-10.817,2.555-3.887,8.963-2.516,9.432,3.371a4.833,4.833,0,0,1,.852.464c2.106,1.43,3.658,3.959,3.255,6.227,2.108-.267,4,2,4.354,2.37A9.207,9.207,0,0,0,42.1,26.938c2.4-2.558.053-5.967-2.254-5.685,0,0,1.432-.958,3.048.812a4.467,4.467,0,0,1,.293,5.326,3.719,3.719,0,0,0,2.837-.455c1.218-.764,1.927-2.215.737-4.478-1.614-3.068-6.625-6.39-7.463-10.142a3.477,3.477,0,0,1,4.613-4.208,5.689,5.689,0,0,1,1.971,1.812c.21.322.375.253.447.174.1-.106,0-.287-.2-.56a1.713,1.713,0,0,1,1.129-2.892c.293-.064.5-.663.865-.784.529-.178.474-.035.64-.1.818-.3.842.091,1.578-.1a.539.539,0,0,1,.591.148l1.377-.552.568-.594-.39.66.727.182Z" transform="translate(-4.252 -3.864)" fill="#fff"/>
      <path id="Path_8177" data-name="Path 8177" d="M107.743,77.981a3.2,3.2,0,0,0,1.83,1.31,6.458,6.458,0,0,0,3.971-.069c-.88-.675-2.6-2.343-3.956-2.8C107.837,75.843,107.227,77.093,107.743,77.981Zm2.063.543a2.7,2.7,0,0,1-1.358-.815c-.25-.343.01-.794.853-.528a11.2,11.2,0,0,1,2.425,1.572A5.554,5.554,0,0,1,109.806,78.524Z" transform="translate(-77.332 -55.086)" fill="#fff"/>
    </g>
  </g>
</svg>
