<svg xmlns="http://www.w3.org/2000/svg" width="36" height="46" viewBox="0 0 36 46">
  <path id="exclusive_items_icon_thinner" data-name="exclusive items icon thinner" d="M1852.388,256.337h-7.013v-5.8a8.768,8.768,0,0,0-17.534,0v5.8h-7.014a2.205,2.205,0,0,0-2.22,2.185v27.2a2.205,2.205,0,0,0,2.22,2.185h31.561a2.205,2.205,0,0,0,2.219-2.185v-27.2A2.205,2.205,0,0,0,1852.388,256.337Zm-23.068-5.8a7.289,7.289,0,0,1,14.576,0v5.8H1829.32Zm23.808,35.182a.735.735,0,0,1-.74.728h-31.561a.735.735,0,0,1-.74-.728v-27.2a.735.735,0,0,1,.74-.728h7.014v4.181a.74.74,0,0,0,1.479,0v-4.181H1843.9v4.181a.74.74,0,0,0,1.479,0v-4.181h7.013a.735.735,0,0,1,.74.728Z" transform="translate(-1818.607 -241.903)" fill="#eee"/>
</svg>
