<svg xmlns="http://www.w3.org/2000/svg" width="52" height="38" viewBox="0 0 52 38">
  <path id="processing_icon" data-name="processing icon" d="M1822.861,325.895a1.749,1.749,0,0,0-.693-1.39l-6.178-4.642a1.756,1.756,0,0,0-1.043-.348h-5.761v-7.289l-4.022-4.19a1.742,1.742,0,0,0-1.255-.536h-8.331a1.734,1.734,0,0,0-1.529.912l-1.822,3.37h-21.367v27.456h5.769a6.364,6.364,0,0,0,12.726,0h12.723a6.364,6.364,0,0,0,12.726,0h8.057Zm-50.511-12.622h20.764l2.246-4.152a.247.247,0,0,1,.219-.13h8.331a.245.245,0,0,1,.18.078l3.608,3.759v19.959a6.384,6.384,0,0,0-5.472,4.959h-13.017a6.362,6.362,0,0,0-12.432,0h-4.427Zm10.643,30.735a4.889,4.889,0,1,1,4.88-4.888A4.89,4.89,0,0,1,1782.993,344.008Zm25.449,0a4.889,4.889,0,1,1,4.88-4.888A4.89,4.89,0,0,1,1808.442,344.008Zm12.93-6.263h-6.715a6.384,6.384,0,0,0-5.471-4.959v-11.78h5.761a.255.255,0,0,1,.151.051l6.177,4.641a.249.249,0,0,1,.1.2Z" transform="translate(-1770.861 -307.5)" fill="#eee"/>
</svg>
