<svg xmlns="http://www.w3.org/2000/svg" width="40" height="46" viewBox="0 0 40 46">
  <g id="calendar_icon_thinner" data-name="calendar icon thinner" transform="translate(-1905.952 -242.115)">
    <g id="Path_8178" data-name="Path 8178" fill="none">
      <path d="M1940.952,248.115h-6.882v-5.5a.5.5,0,0,0-.5-.5h-.5a.5.5,0,0,0-.5.5v5.5h-13.444v-5.5a.5.5,0,0,0-.5-.5h-.5a.5.5,0,0,0-.5.5v5.5h-6.674a5,5,0,0,0-5,5v30a5,5,0,0,0,5,5h30a5,5,0,0,0,5-5v-30A5,5,0,0,0,1940.952,248.115Zm3.5,35a3.5,3.5,0,0,1-3.5,3.5h-30a3.5,3.5,0,0,1-3.5-3.5v-22.95h37Zm-37-24.45v-5.55a3.5,3.5,0,0,1,3.5-3.5h30a3.5,3.5,0,0,1,3.5,3.5v5.55Z" stroke="none"/>
      <path d="M 1918.1259765625 242.115234375 L 1918.6259765625 242.115234375 C 1918.901977539062 242.115234375 1919.1259765625 242.3392333984375 1919.1259765625 242.615234375 L 1919.1259765625 248.114990234375 L 1932.569946289062 248.114990234375 L 1932.569946289062 242.615234375 C 1932.569946289062 242.3392333984375 1932.7939453125 242.115234375 1933.069946289062 242.115234375 L 1933.569946289062 242.115234375 C 1933.845947265625 242.115234375 1934.069946289062 242.3392333984375 1934.069946289062 242.615234375 L 1934.069946289062 248.114990234375 L 1940.952026367188 248.114990234375 C 1943.713989257812 248.114990234375 1945.952026367188 250.35400390625 1945.952026367188 253.114990234375 L 1945.952026367188 283.114990234375 C 1945.952026367188 285.8770141601562 1943.713989257812 288.114990234375 1940.952026367188 288.114990234375 L 1910.952026367188 288.114990234375 C 1908.191040039062 288.114990234375 1905.952026367188 285.8770141601562 1905.952026367188 283.114990234375 L 1905.952026367188 253.114990234375 C 1905.952026367188 250.35400390625 1908.191040039062 248.114990234375 1910.952026367188 248.114990234375 L 1917.6259765625 248.114990234375 L 1917.6259765625 242.615234375 C 1917.6259765625 242.3392333984375 1917.849975585938 242.115234375 1918.1259765625 242.115234375 Z M 1944.452026367188 258.6650085449219 L 1944.452026367188 253.114990234375 C 1944.452026367188 251.1849975585938 1942.881958007812 249.614990234375 1940.952026367188 249.614990234375 L 1910.952026367188 249.614990234375 C 1909.02197265625 249.614990234375 1907.452026367188 251.1849975585938 1907.452026367188 253.114990234375 L 1907.452026367188 258.6650085449219 L 1944.452026367188 258.6650085449219 Z M 1940.952026367188 286.614990234375 C 1942.881958007812 286.614990234375 1944.452026367188 285.0450134277344 1944.452026367188 283.114990234375 L 1944.452026367188 260.1650085449219 L 1907.452026367188 260.1650085449219 L 1907.452026367188 283.114990234375 C 1907.452026367188 285.0450134277344 1909.02197265625 286.614990234375 1910.952026367188 286.614990234375 L 1940.952026367188 286.614990234375 Z" stroke="none" fill="#eee"/>
    </g>
    <g id="Group_2256" data-name="Group 2256" transform="translate(0 2)">
      <rect id="Rectangle_731" data-name="Rectangle 731" width="6" height="6" transform="translate(1913.951 264.115)" fill="#eee"/>
      <rect id="Rectangle_732" data-name="Rectangle 732" width="6" height="6" transform="translate(1922.951 264.115)" fill="#eee"/>
      <rect id="Rectangle_733" data-name="Rectangle 733" width="6" height="6" transform="translate(1931.951 264.115)" fill="#eee"/>
      <rect id="Rectangle_734" data-name="Rectangle 734" width="6" height="6" transform="translate(1913.951 273.115)" fill="#eee"/>
      <rect id="Rectangle_735" data-name="Rectangle 735" width="6" height="6" transform="translate(1922.951 273.115)" fill="#eee"/>
      <rect id="Rectangle_736" data-name="Rectangle 736" width="6" height="6" transform="translate(1931.951 273.115)" fill="#eee"/>
    </g>
  </g>
</svg>
