<svg xmlns="http://www.w3.org/2000/svg" width="24" height="29.999" viewBox="0 0 24 29.999">
  <g id="razerstore_icon" data-name="razerstore icon" transform="translate(-390.03 -617.568)">
    <path id="Path_8116" data-name="Path 8116" d="M412.543,627.644v-5.22a4.656,4.656,0,1,0-9.3,0v5.22a.774.774,0,1,0,.9,0v-6.038a3.8,3.8,0,0,1,7.507,0v6.044a.773.773,0,1,0,.9-.005Z" transform="translate(-5.861 0)" fill="#eee"/>
    <g id="Group_2239" data-name="Group 2239" transform="translate(390.03 624.638)">
      <path id="Path_8117" data-name="Path 8117" d="M413.883,654.213a.821.821,0,0,0,.415.249,1.693,1.693,0,0,0,.587.07,3.458,3.458,0,0,0-.741-.48C413.886,653.97,413.806,654.108,413.883,654.213Z" transform="translate(-400.86 -641.194)" fill="#eee"/>
      <path id="Path_8118" data-name="Path 8118" d="M410.762,654.643a.822.822,0,0,0-.423.235,1.7,1.7,0,0,0-.354.473,3.412,3.412,0,0,0,.787-.4C410.971,654.767,410.891,654.63,410.762,654.643Z" transform="translate(-399.101 -641.473)" fill="#eee"/>
      <path id="Path_8119" data-name="Path 8119" d="M411.954,650.462a3.439,3.439,0,0,0-.045.882c.058.264.217.264.27.145a.821.821,0,0,0,.008-.484A1.692,1.692,0,0,0,411.954,650.462Z" transform="translate(-399.967 -639.575)" fill="#eee"/>
      <path id="Path_8120" data-name="Path 8120" d="M411.842,630.519h-4.566v2.787a1.34,1.34,0,1,1-2.106,0v-2.787h-6.288v2.787a1.341,1.341,0,1,1-2.106,0v-2.787h-4.558l-2.188,22.929h24Zm-6.4,20.9h-.063v.2h-.037v-.2h-.064v-.032h.164Zm.29.2h-.036v-.187h0l-.053.178H405.6l-.053-.178h0v.187H405.5v-.228h.063l.05.178.05-.178h.063Zm2.763-14.243-.2-.009-.244.1a.453.453,0,0,1-.189.207.22.22,0,0,0-.084.078.65.65,0,0,1-.277.229.6.6,0,0,1-.193.127.617.617,0,0,1-.352.029c.016.024.035.055.056.091a.749.749,0,0,1,.038.852.7.7,0,0,1-.477.3.758.758,0,0,1-.586-.19,2.187,2.187,0,0,1-.206-.211c-.244-.273-.385-.39-.526-.323a.258.258,0,0,0-.153.186.82.82,0,0,0,.162.54l.039.065a7.413,7.413,0,0,0,.957,1.121,7.771,7.771,0,0,1,1.2,1.455c.033.058.065.116.094.174a1.718,1.718,0,0,1-.315,2,1.958,1.958,0,0,1-2.209.376,1.775,1.775,0,0,1-.172.1,2.772,2.772,0,0,1-1.245.276,1.967,1.967,0,0,1-.928-.237,2.14,2.14,0,0,1-1.275.671l-.037.008-.061.014a3.129,3.129,0,0,0-.454.133.77.77,0,0,0,.682.4.665.665,0,0,0,.626-.346.244.244,0,0,1,.225-.15.216.216,0,0,1,.041,0,.245.245,0,0,1,.2.226.966.966,0,0,1-.872.938,1.476,1.476,0,0,1-.318.035,1.582,1.582,0,0,1-1.183-.577.858.858,0,0,0-.072.378c.015.406.3.622.836.643h.071a6.557,6.557,0,0,0,1.375-.235,7.7,7.7,0,0,1,1.725-.279,2.343,2.343,0,0,1,.713.1,1.32,1.32,0,0,1,.965,1.063,1.2,1.2,0,0,1-.7,1.352.663.663,0,0,1,.1.11.794.794,0,0,1,.091.714l.014.035a.553.553,0,0,1,.055.333.606.606,0,0,1-.078.216.637.637,0,0,1-.16.322.19.19,0,0,0-.054.1.455.455,0,0,1-.14.224l-.04.274.056.19a.244.244,0,0,1-.14.294.241.241,0,0,1-.095.02.247.247,0,0,1-.166-.065.241.241,0,0,1-.108.025.245.245,0,0,1-.207-.377l.106-.167.038-.26a.456.456,0,0,1-.084-.267.215.215,0,0,0-.026-.111.65.65,0,0,1-.059-.355.6.6,0,0,1-.013-.23.612.612,0,0,1,.151-.32c-.029,0-.065,0-.106,0a.747.747,0,0,1-.756-.393.7.7,0,0,1-.024-.564.758.758,0,0,1,.457-.413,2.074,2.074,0,0,1,.286-.073c.358-.075.53-.138.542-.294a.258.258,0,0,0-.085-.227.821.821,0,0,0-.548-.129h-.076a7.381,7.381,0,0,0-1.449.27,7.793,7.793,0,0,1-1.858.311c-.067,0-.134,0-.2-.005a1.715,1.715,0,0,1-1.569-1.271,1.962,1.962,0,0,1,.78-2.1,1.612,1.612,0,0,1,0-.2,2.78,2.78,0,0,1,.383-1.218,1.97,1.97,0,0,1,.67-.686,2.141,2.141,0,0,1,.057-1.441l.011-.035.018-.06a3.105,3.105,0,0,0,.113-.46.769.769,0,0,0-.688.39.665.665,0,0,0-.014.716.245.245,0,0,1,.016.27.211.211,0,0,1-.023.034.244.244,0,0,1-.3.064.967.967,0,0,1-.376-1.224,1.49,1.49,0,0,1,.129-.294,1.583,1.583,0,0,1,1.091-.737.857.857,0,0,0-.291-.251c-.358-.19-.686-.054-.975.4-.013.019-.025.04-.037.061a6.535,6.535,0,0,0-.484,1.309,7.747,7.747,0,0,1-.621,1.636,2.357,2.357,0,0,1-.442.569,1.321,1.321,0,0,1-1.4.305,1.285,1.285,0,0,1-.824-1.041,1.238,1.238,0,0,1,0-.241.7.7,0,0,1-.146.032.79.79,0,0,1-.663-.277l-.037-.005a.559.559,0,0,1-.316-.12.6.6,0,0,1-.147-.175.635.635,0,0,1-.2-.3.2.2,0,0,0-.056-.095.452.452,0,0,1-.124-.233l-.218-.171-.192-.047a.245.245,0,0,1-.015-.472.25.25,0,0,1,.032-.106.245.245,0,0,1,.43.01l.091.176.206.163a.452.452,0,0,1,.274.061.211.211,0,0,0,.109.033.651.651,0,0,1,.337.126.6.6,0,0,1,.206.1.617.617,0,0,1,.2.291c.013-.026.03-.058.05-.094a.747.747,0,0,1,.718-.459.693.693,0,0,1,.5.262.761.761,0,0,1,.129.6,2.114,2.114,0,0,1-.08.284c-.114.348-.146.529-.016.617a.256.256,0,0,0,.238.04c.128-.042.249-.173.387-.411l.036-.067a7.409,7.409,0,0,0,.491-1.39,7.768,7.768,0,0,1,.659-1.767c.033-.058.068-.115.1-.169a1.715,1.715,0,0,1,1.884-.724,1.961,1.961,0,0,1,1.43,1.727,1.625,1.625,0,0,1,.169.1,2.774,2.774,0,0,1,.862.941,1.964,1.964,0,0,1,.258.923,2.139,2.139,0,0,1,1.219.77l.025.027.043.046a3.093,3.093,0,0,0,.341.328.772.772,0,0,0,.007-.792.665.665,0,0,0-.613-.37.245.245,0,0,1-.242-.121.262.262,0,0,1-.017-.037.246.246,0,0,1,.093-.289.965.965,0,0,1,1.247.287,1.462,1.462,0,0,1,.19.259,1.586,1.586,0,0,1,.092,1.314.862.862,0,0,0,.363-.127c.344-.216.39-.568.139-1.047q-.016-.031-.034-.062a6.521,6.521,0,0,0-.891-1.074,7.76,7.76,0,0,1-1.1-1.356,2.365,2.365,0,0,1-.27-.668,1.323,1.323,0,0,1,.437-1.368,1.285,1.285,0,0,1,1.313-.194,1.193,1.193,0,0,1,.207.124.689.689,0,0,1,.045-.143.792.792,0,0,1,.572-.436l.023-.03a.559.559,0,0,1,.261-.213.593.593,0,0,1,.225-.041.642.642,0,0,1,.359-.022.19.19,0,0,0,.109,0,.45.45,0,0,1,.264.009l.257-.1.137-.143a.245.245,0,0,1,.325-.026.237.237,0,0,1,.064.073.247.247,0,0,1,.027.176.253.253,0,0,1,.076.081.245.245,0,0,1-.223.367Z" transform="translate(-390.03 -630.519)" fill="#eee"/>
      <path id="Path_8121" data-name="Path 8121" d="M411.553,642.154l-.174.181-.42.169a.165.165,0,0,0-.181-.045c-.225.057-.232-.063-.482.03-.051.019-.034-.025-.2.029-.112.037-.175.22-.264.24a.524.524,0,0,0-.345.884c.06.083.091.139.061.171s-.073.045-.137-.053a1.733,1.733,0,0,0-.6-.554,1.062,1.062,0,0,0-1.41,1.286c.256,1.146,1.787,2.161,2.28,3.1.364.691.147,1.135-.225,1.368a1.137,1.137,0,0,1-.867.139,1.366,1.366,0,0,0-.09-1.627c-.494-.541-.931-.248-.931-.248a1.01,1.01,0,0,1,.689,1.737,2.831,2.831,0,0,1-.615-.537c-.108-.114-.686-.806-1.33-.724a2.071,2.071,0,0,0-.995-1.9,1.516,1.516,0,0,0-.26-.142,1.6,1.6,0,0,0-2.882-1.03c-.637.968-.75,2.373-1.244,3.305-.234.442-.6.807-1.017.525-.4-.272-.059-.846-.007-1.146a.451.451,0,0,0-.409-.578c-.325-.027-.5.355-.551.461a.206.206,0,0,1-.363.06c-.056-.063-.08-.235-.177-.3-.139-.1-.135-.051-.178-.084-.213-.161-.252-.051-.454-.167a.168.168,0,0,0-.2,0l-.353-.278-.116-.223.063.22-.235,0,.244.06.357.28a.164.164,0,0,0,.051.179c.162.167.061.233.266.4.042.034,0,.042.123.155.088.079.278.041.34.109a.523.523,0,0,0,.938-.143c.043-.093.075-.147.118-.138s.076.04.022.145a1.732,1.732,0,0,0-.178.8,1.062,1.062,0,0,0,1.818.578c.865-.795.978-2.629,1.544-3.524.417-.661.91-.694,1.3-.489a1.138,1.138,0,0,1,.554.681,1.365,1.365,0,0,0-1.365.891c-.222.7.251.931.251.931a1.01,1.01,0,0,1,1.161-1.465,2.817,2.817,0,0,1-.158.8c-.045.15-.354,1,.038,1.514a2.072,2.072,0,0,0-1.151,1.812,1.48,1.48,0,0,0,.007.3,1.6,1.6,0,0,0,.549,3.011c1.157.067,2.43-.537,3.484-.576.5-.018,1,.119.964.618-.036.481-.7.475-.989.579a.451.451,0,0,0-.3.643c.139.3.555.252.675.247.267-.011.262.2.233.284s-.163.187-.174.305c-.015.17.023.143.017.2-.033.265.081.244.082.476a.169.169,0,0,0,.1.172l-.064.444-.135.211.159-.164.115.2-.07-.241.064-.449a.164.164,0,0,0,.129-.134c.063-.223.171-.17.216-.432.009-.053.038-.017.072-.184.024-.116-.1-.261-.075-.349.178-.56-.221-.777-.593-.741-.1.01-.165.009-.178-.033s0-.085.114-.092a1.737,1.737,0,0,0,.781-.245,1.062,1.062,0,0,0-.408-1.864c-1.121-.352-2.766.467-3.824.425-.781-.031-1.056-.44-1.073-.88a1.137,1.137,0,0,1,.313-.82,1.365,1.365,0,0,0,1.454.737c.715-.157.681-.683.681-.683a1.01,1.01,0,0,1-1.849-.272,2.791,2.791,0,0,1,.772-.264c.153-.037,1.042-.192,1.293-.79a2.072,2.072,0,0,0,2.145.091,1.549,1.549,0,0,0,.253-.154,1.6,1.6,0,0,0,2.333-1.981c-.52-1.036-1.68-1.836-2.24-2.73-.266-.424-.4-.926.053-1.143.435-.21.762.372,1,.567a.45.45,0,0,0,.7-.065c.187-.267-.06-.607-.123-.708a.206.206,0,0,1,.129-.344c.083-.017.244.048.352,0,.155-.072.112-.092.162-.113.246-.1.17-.193.371-.31a.167.167,0,0,0,.1-.172l.417-.167.251.011-.222-.056ZM405,649.47a5.23,5.23,0,0,1-1.344.62,1.973,1.973,0,0,1,.588-1.061.978.978,0,0,1,.626-.284C405.187,648.743,405.425,649.1,405,649.47Zm.566-1.609c-.156.272-.58.3-.693-.251a5.233,5.233,0,0,1,.135-1.474,1.971,1.971,0,0,1,.625,1.041A.975.975,0,0,1,405.568,647.861Zm.977,1.444a.98.98,0,0,1-.56-.4c-.158-.272.029-.653.564-.475a5.242,5.242,0,0,1,1.209.854A1.969,1.969,0,0,1,406.545,649.3Z" transform="translate(-393.175 -635.802)" fill="#eee"/>
    </g>
  </g>
</svg>
