<svg id="icon-bags" xmlns="http://www.w3.org/2000/svg" width="31.039" height="35.995" viewBox="0 0 31.039 35.995">
  <g id="bags_icon_default" data-name="bags icon default" transform="translate(-1276.14 46.592)">
    <g id="Group_1233" data-name="Group 1233">
      <path id="Path_8084" data-name="Path 8084" d="M1305.946-35.495l-2.576-.258,1.047,5.484,2.3-1.188a.834.834,0,0,0,.448-.893l-.474-2.48A.832.832,0,0,0,1305.946-35.495Zm.845,3.217a.453.453,0,0,1-.248.484l-1.847.954-.856-4.485,2.068.207a.454.454,0,0,1,.41.359Z" fill="#eee"/>
      <rect id="Rectangle_625" data-name="Rectangle 625" width="0.42" height="2.069" transform="translate(1305.379 -34.348) rotate(-10.808)" fill="#eee"/>
    </g>
    <g id="Group_1234" data-name="Group 1234">
      <path id="Path_8085" data-name="Path 8085" d="M1276.628-34.83l-.474,2.48a.835.835,0,0,0,.448.893l2.3,1.188,1.047-5.484-2.576.258A.832.832,0,0,0,1276.628-34.83Zm.374.071a.453.453,0,0,1,.409-.359l2.069-.207-.856,4.485-1.847-.954a.452.452,0,0,1-.249-.484Z" fill="#eee"/>
      <rect id="Rectangle_626" data-name="Rectangle 626" width="0.42" height="2.069" transform="translate(1277.552 -32.315) rotate(-169.192)" fill="#eee"/>
    </g>
    <path id="Path_8086" data-name="Path 8086" d="M1302.056-41.322a6.718,6.718,0,0,0-6.548-5.186l-.99-.034q-2.919-.1-5.839,0l-.99.034a6.718,6.718,0,0,0-6.548,5.186,97.906,97.906,0,0,0-3.492,22.472s.241,4.875,1.11,6.612c0,0,.82,1.641,1.979,1.641h21.721c1.158,0,1.979-1.641,1.979-1.641.869-1.737,1.11-6.612,1.11-6.612A97.906,97.906,0,0,0,1302.056-41.322Zm1.375,28.581a2.581,2.581,0,0,1-.853.983l-.076.036-21.925-.036a2.839,2.839,0,0,1-.812-.983c-.554-1.109-.9-4.37-.994-6.166a99.013,99.013,0,0,1,3.459-22.13,5.57,5.57,0,0,1,5.478-4.346l1.01-.035c1.917-.065,3.842-.065,5.761,0l.99.034a5.524,5.524,0,0,1,5.486,4.292,97.982,97.982,0,0,1,3.468,22.242C1304.332-17.062,1303.983-13.845,1303.431-12.741Z" fill="#eee"/>
    <path id="Path_8087" data-name="Path 8087" d="M1300.227-40.916a4.79,4.79,0,0,0-4.778-3.718l-1-.034q-2.854-.1-5.71,0l-1.015.035a4.759,4.759,0,0,0-4.769,3.773,98.3,98.3,0,0,0-3.438,21.925,22.329,22.329,0,0,0,.915,5.858,3.064,3.064,0,0,0,.436.6H1302.3a2.512,2.512,0,0,0,.46-.609,22.608,22.608,0,0,0,.91-5.788A97.565,97.565,0,0,0,1300.227-40.916Zm-3.556,9.593,1.162-3.619.145.046.264-.822a.243.243,0,0,1,.306-.157l.41.132a.242.242,0,0,1,.157.306l-.263.822.145.046-1.162,3.62Zm2.456,16.247h-.8V-30.949l.8-2.469Zm0-20.99-.8-.193V-37.49h.8Z" fill="#eee"/>
  </g>
</svg>
