<svg id="icon-sneki" xmlns="http://www.w3.org/2000/svg" width="33.404" height="36.5" viewBox="0 0 33.404 36.5">
  <g id="Sneki_Snek_icon_default" data-name="Sneki Snek icon default" transform="translate(2432.419 1237.297)">
    <path id="Subtraction_120" data-name="Subtraction 120" d="M-7440.317-1280.974h0a15.354,15.354,0,0,1-6.257-4.591,11.054,11.054,0,0,1-1.844-4.458,11.492,11.492,0,0,1,1.943-6.407,10.579,10.579,0,0,1,3.982-3.359,15.147,15.147,0,0,1,5.7-1.507h2.983a18.842,18.842,0,0,1,5.365,2.222,10.255,10.255,0,0,1,3.394,3.269,7.289,7.289,0,0,1,.924,5.144c-.607,3.584-2.858,6.211-6.69,7.808a30.678,30.678,0,0,1-9.5,1.88Zm9.054-12.88c-2.532,0-4.248,2.809-5.241,5.166-.6,2.836.26,3.818.269,3.827a12.389,12.389,0,0,0,3.529.615,5.371,5.371,0,0,0,1.71-.247,5.275,5.275,0,0,0,3.812-4.524,5.07,5.07,0,0,0-1.066-2.981,4.8,4.8,0,0,0-1.8-1.648A3.879,3.879,0,0,0-7431.263-1293.855Zm-13.452-.084a3.531,3.531,0,0,0-.463.044c-.094.013-.2.028-.312.039-.661.067-1.01,1.49-1.037,4.232a4.25,4.25,0,0,0,1.3,2.946,5.9,5.9,0,0,0,2.085,1.421c.635-.159.167-2.9-.208-5.1l-.008-.051c-.111-.649-.215-1.262-.281-1.749C-7443.837-1293.647-7444.184-1293.938-7444.715-1293.938Z" transform="translate(5016 64)" fill="#eee"/>
    <path id="Path_148" data-name="Path 148" d="M-2420.917-1207.172s-5.761,13.736,9.533,14.574c3.313.006,12.957-.384,12.547-9.434-1.021-3.273-3.753-5.655-8.95-5.539" transform="translate(-2.787 -8.699)" fill="none" stroke="#eee" stroke-width="1"/>
    <path id="Path_150" data-name="Path 150" d="M-2413.463-1207.914s-5.818,8.993,2.5,14.823" transform="translate(-4.402 -8.345)" fill="none" stroke="#eee" stroke-width="1"/>
    <path id="Intersection_3" data-name="Intersection 3" d="M-7447.983-1296.178c1.379-3.055,2.862-4.191,4.062-4.549a3.264,3.264,0,0,1,.755,2.106,3.055,3.055,0,0,1-2.952,3.15A2.828,2.828,0,0,1-7447.983-1296.178Z" transform="translate(5028.033 71.685)" fill="#eee"/>
    <path id="Path_156" data-name="Path 156" d="M-2426.826-1224.1s-.555-.618-.526,0-.582,1.5,1.011,2.747A9.317,9.317,0,0,0-2426.826-1224.1Z" transform="translate(-1.322 -3.851)" fill="#eee"/>
    <path id="Path_157" data-name="Path 157" d="M-2412.559-1220.565s.055,2.5,2.082,2.6a4.912,4.912,0,0,0,3.3-3.977,5.367,5.367,0,0,0,0-1.605" transform="translate(-5.2 -3.827)" fill="none" stroke="#eee" stroke-width="1"/>
    <path id="Path_158" data-name="Path 158" d="M-2427.176-1225.842s-.908-.111-.85,1.579-.107,3.214.545,3.8a1.4,1.4,0,0,0,1.237.429" transform="translate(-1.15 -3.29)" fill="none" stroke="#eee" stroke-width="1"/>
    <line id="Line_35" data-name="Line 35" x2="5.167" transform="translate(-2424.359 -1214.332)" fill="none" stroke="#eee" stroke-width="1"/>
    <line id="Line_36" data-name="Line 36" x2="4.429" transform="translate(-2424.359 -1211.531)" fill="none" stroke="#eee" stroke-width="1"/>
    <line id="Line_37" data-name="Line 37" x2="4.429" transform="translate(-2424.359 -1207.33)" fill="none" stroke="#eee" stroke-width="1"/>
    <line id="Line_38" data-name="Line 38" x2="3.691" transform="translate(-2422.144 -1204.529)" fill="none" stroke="#eee" stroke-width="1"/>
    <path id="Path_159" data-name="Path 159" d="M-2423.083-1208.88a2.353,2.353,0,0,1-3.2,2.477" transform="translate(-1.607 -8.699)" fill="none" stroke="#eee" stroke-width="1"/>
    <path id="Path_160" data-name="Path 160" d="M-2425.168-1204.367s2.526-1.905,2.685-4.337" transform="translate(-1.899 -8.654)" fill="none" stroke="#eee" stroke-width="1"/>
    <path id="Path_7949" data-name="Path 7949" d="M-2418.318-1216.525s-1.66,3.472-1.572,5.326.162,3.973.544,4.606,2.584,4.973,4.2,5.164a17.435,17.435,0,0,0,5.8-.259c1.56-.456,5.487-2.135,6.12-3.5s2.26-3.878,1.127-6.008-2.471-4.268-4.34-4.974-4.623-.854-4.282,0,1.128,1.1,1.375,2.032-.187,2.342-1.375,1.974a3.107,3.107,0,0,1-2.07-2.692c.074-.927,2.852-5.707.478-4.092A20.727,20.727,0,0,1-2418.318-1216.525Z" fill="#eee"/>
    <path id="Subtraction_121" data-name="Subtraction 121" d="M-7445.219-1291.022h0l-2.677-3.955a13.388,13.388,0,0,1,3.127,3.795,2.087,2.087,0,0,1-.449.161Zm1.44-.847h0a10.546,10.546,0,0,0-1.576-2.74,7.35,7.35,0,0,0-1.128-1.042,1.316,1.316,0,0,0,.034-1c-.1-.355-.227-.709-.349-1.052l-.009-.026c-.5-1.387-.923-2.584.358-3.261a2.409,2.409,0,0,1,1.126-.306,1.952,1.952,0,0,1,1.444.657c-.014.006-1.35.619-1.519,1.358a.718.718,0,0,0,.179.644,8.018,8.018,0,0,0,.823.774c1.172,1.015,2.778,2.4,1.886,4.223a6.053,6.053,0,0,1-1.268,1.771Z" transform="translate(5043.236 80.476)" fill="#eee"/>
  </g>
</svg>
