<svg id="icon-chairs" xmlns="http://www.w3.org/2000/svg" width="25" height="36" viewBox="0 0 25 36">
  <path id="Chairs_icon_default" data-name="Chairs icon default" d="M1342.663-32.7H1340.8a.911.911,0,0,0-.912.911v.389a.9.9,0,0,0,.738.876v3.171a3.5,3.5,0,0,0-2.073-1.089l.641-1.033a8.607,8.607,0,0,0,.143-4.259c-.774-3.215-.56-4.283-.289-5.635a15.939,15.939,0,0,0,.292-1.866,4.252,4.252,0,0,0-.719-3.2,5.083,5.083,0,0,0-2.249-1.41c-1.262-.483-2.446-3.348-2.762-4.314l-.1-.312h-4.919l-.1.309c-.346,1.038-1.51,3.834-2.729,4.305a5.105,5.105,0,0,0-2.325,1.472,4.2,4.2,0,0,0-.681,3.111,16.236,16.236,0,0,0,.3,1.9c.274,1.354.49,2.424-.285,5.654a8.537,8.537,0,0,0,.139,4.25l.681,1.028a3.489,3.489,0,0,0-2.069,1.087v-3.169a.9.9,0,0,0,.737-.876v-.389a.911.911,0,0,0-.912-.911h-1.862a.911.911,0,0,0-.912.91h0v.389a.911.911,0,0,0,.911.911h.563v6.182h.591a3.5,3.5,0,0,0,3.433,2.833h6.088v1.53h-3.008v.009L1323.89-18.5l.236.516a1.8,1.8,0,0,0-1.092,1.325,1.683,1.683,0,0,0-.038.367,1.758,1.758,0,0,0,.071.478,1.8,1.8,0,0,0,1.023,1.2,1.736,1.736,0,0,0,.7.142,1.743,1.743,0,0,0,.61-.116,1.822,1.822,0,0,0,1.18-1.707,1.83,1.83,0,0,0-.775-1.5l1.67-.734h2.681v.674a1.823,1.823,0,0,0-.858,1.2,1.893,1.893,0,0,0-.036.367,1.843,1.843,0,0,0,.071.478,1.8,1.8,0,0,0,1.023,1.2,1.753,1.753,0,0,0,.7.142,1.743,1.743,0,0,0,.61-.116,1.823,1.823,0,0,0,1.182-1.707,1.81,1.81,0,0,0-.9-1.57v-.66h2.689l1.664.732a1.816,1.816,0,0,0-.736,1.132,1.743,1.743,0,0,0-.036.367,1.8,1.8,0,0,0,.07.478,1.8,1.8,0,0,0,1.023,1.2,1.758,1.758,0,0,0,.693.142,1.739,1.739,0,0,0,.61-.116,1.822,1.822,0,0,0,1.18-1.707,1.812,1.812,0,0,0-1.125-1.69l.231-.514-3.258-1.431v-.01h-3.008v-1.533h6.125a3.5,3.5,0,0,0,3.433-2.833h.594v-6.182h.562a.911.911,0,0,0,.911-.911v-.389A.91.91,0,0,0,1342.663-32.7Zm-4.965,4.847-1.554.365-.992,1.465h-8.192l-.991-1.465-1.555-.365a.5.5,0,0,1-.372-.6.5.5,0,0,1,.6-.372l1.935.453.913,1.35h7.13l.913-1.35,1.936-.453a.5.5,0,0,1,.6.372A.5.5,0,0,1,1337.7-27.851Z" transform="translate(-1318.57 50.469)" fill="#eee"/>
</svg>
