<svg id="icon-gear" xmlns="http://www.w3.org/2000/svg" width="11.86" height="36" viewBox="0 0 11.86 36">
  <g id="Gear_icon_default" data-name="Gear icon default" transform="translate(1503 16074)">
    <g id="bottle" transform="translate(-1502.997 -16074)">
      <g id="Layer_1" data-name="Layer 1" transform="translate(-0.003)">
        <path id="Path_7865" data-name="Path 7865" d="M11.73,11.12a2.43,2.43,0,0,0-.17-.52,3.17,3.17,0,0,0-.5-.75A8.11,8.11,0,0,0,10.13,9,2.42,2.42,0,0,1,9,5.94H4.16C4.62,7.88,4,8.3,3.07,9a8,8,0,0,0-1,.82,2.73,2.73,0,0,0-.6,1.06v.1a2,2,0,0,0,0,.24h0v4.69h0a1.55,1.55,0,0,0,0,.31,9.19,9.19,0,0,1,0,3.62h0a2.69,2.69,0,0,0,0,.4V34.82a1,1,0,0,0,.91,1H6.67l4.25-.08a.9.9,0,0,0,.86-.91V20.27a2.69,2.69,0,0,0,0-.4h0a9.42,9.42,0,0,1,0-3.43,3,3,0,0,0,.07-.59V11.41a1,1,0,0,0,0-.24Z" transform="translate(0.003 0.18)" fill="#eee"/>
        <path id="Path_7866" data-name="Path 7866" d="M7.14,0H5.94A1.65,1.65,0,0,0,4.3,1.66v.15c-.17.27-.33.55-.47.83l-.16-.06a1.14,1.14,0,0,0-1.29.57L.1,7.25A.8.8,0,0,0,.57,8.41h0A1.74,1.74,0,0,0,2.71,7.35L4.17,3.57a.74.74,0,0,0-.24-.86A7.37,7.37,0,0,1,4.3,2V4.1H8.78V1.66A1.65,1.65,0,0,0,7.14,0ZM3.64,3.36,2.18,7.14a1.2,1.2,0,0,1-1.11.77h0a1.33,1.33,0,0,1-.34,0,.21.21,0,0,1-.14-.14.21.21,0,0,1,0-.19l2.27-4.1a.59.59,0,0,1,.52-.3h.14a.15.15,0,0,1,.1.09.17.17,0,0,1,.02.09ZM5,1,5.12.91a.08.08,0,0,0,0-.09A.08.08,0,0,0,5,.83L4.92,1a.24.24,0,0,1,0-.09A.2.2,0,0,1,5.08.68a.19.19,0,0,1,.18.19.18.18,0,0,1-.18.18ZM6.54,3.29a1.4,1.4,0,1,1,1.38-1.4,1.4,1.4,0,0,1-1.38,1.4Z" transform="translate(0.003)" fill="#eee"/>
      </g>
    </g>
  </g>
</svg>
