<svg id="icon-respawn" xmlns="http://www.w3.org/2000/svg" width="22" height="36" viewBox="0 0 22 36">
  <g id="RESPAWN_icon_default" data-name="RESPAWN icon default" transform="translate(2228.001 1402.956)">
    <path id="Subtraction_122" data-name="Subtraction 122" d="M-7321-1435.956h-10a3.841,3.841,0,0,1-4-3.647l-1.463-17.353h20.928L-7317-1439.6A3.841,3.841,0,0,1-7321-1435.956Zm5.634-23h-21.266l-.367-4.353a3.84,3.84,0,0,1,4-3.647h14a3.841,3.841,0,0,1,4,3.647l-.367,4.352Z" transform="translate(5109 69)" fill="#eee"/>
    <path id="Path_146" data-name="Path 146" d="M-2211.937-1398.956h-12.76l-2.24-2.7s.32-1.178,2.24-1.261,11.448,0,11.448,0Z" fill="#eee"/>
  </g>
</svg>
