<svg id="icon-apparel" xmlns="http://www.w3.org/2000/svg" width="38.002" height="34" viewBox="0 0 38.002 34">
  <g id="Apparel_icon_default" data-name="Apparel icon default" transform="translate(2474.001 1419)">
    <g id="shirt">
      <path id="Subtraction_108" data-name="Subtraction 108" d="M-7157.014-1451h-21.969v-17.959l-5.408,1.214-2.61-10.245,13.052-7.009h11.9l13.052,7.009-2.61,10.245-5.405-1.216V-1451Zm-9.984-20v1h6v-1Zm-6.486-13.5h0a7.045,7.045,0,0,0,1.622,4.125A5.077,5.077,0,0,0-7168-1478.5a5.072,5.072,0,0,0,3.863-1.876,7.045,7.045,0,0,0,1.622-4.125Z" transform="translate(4713 66)" fill="#eee"/>
    </g>
  </g>
</svg>
