<svg xmlns="http://www.w3.org/2000/svg" width="36" height="29.966" viewBox="0 0 36 29.966"><defs><style>.a{fill:#eee;}</style></defs><path class="a" d="M23.383,29.966H12.615v-.913a2.31,2.31,0,0,0,.364.025,2.655,2.655,0,0,0,1.938-.791,4.661,4.661,0,0,0,.909-3.538H1a1,1,0,0,1-1-1V1A1,1,0,0,1,1,0H35a1,1,0,0,1,1,1V23.75a1,1,0,0,1-1,1H20.172a4.661,4.661,0,0,0,.909,3.538,2.655,2.655,0,0,0,1.938.791,2.315,2.315,0,0,0,.364-.025v.912Zm-5.258-8.591A.125.125,0,0,0,18,21.5v.344h0a.7.7,0,1,0,.754.7.685.685,0,0,0-.017-.149.253.253,0,0,1-.233.149.235.235,0,1,1,0-.469.3.3,0,0,1,.067.008.768.768,0,0,0-.317-.2V21.5A.125.125,0,0,0,18.125,21.375ZM1.5,1.5V20.25h33V1.5Z"/></svg>