<svg id="icon-masks" xmlns="http://www.w3.org/2000/svg" width="46" height="24" viewBox="0 0 46 24">
  <g id="Masks_icon_default" data-name="Masks icon default" transform="translate(2178 1509)">
    <g id="Group_603" data-name="Group 603" transform="translate(-51 -123)">
      <path id="Path_7833" data-name="Path 7833" d="M4,.042,15.643-1.916,28,.042a4.044,4.044,0,0,1,4,4.088V16.392a4.044,4.044,0,0,1-4,4.088l-12.357,1.6L4,20.479a4.044,4.044,0,0,1-4-4.088V4.129A4.044,4.044,0,0,1,4,.042Z" transform="translate(-2120 -1384.084)" fill="#eee"/>
      <path id="Path_7833-2" data-name="Path 7833" d="M4,.042,15.643-1.916,28,.042a4.044,4.044,0,0,1,4,4.088V16.392a4.044,4.044,0,0,1-4,4.088l-12.357,1.6L4,20.479a4.044,4.044,0,0,1-4-4.088V4.129A4.044,4.044,0,0,1,4,.042Z" transform="translate(-2120 -1384.084)" fill="#eee"/>
      <g id="Subtraction_41" data-name="Subtraction 41" transform="translate(-2127 -1391)" fill="none">
        <path d="M7.5,24a7.5,7.5,0,0,1,0-15c.166,0,.335.006.5.016V23.984C7.829,24,7.661,24,7.5,24Z" stroke="none"/>
        <path d="M 7.000092029571533 22.98129081726074 L 7.000109195709229 10.01900672912598 C 3.648571252822876 10.27483749389648 0.9999905228614807 13.08374786376953 0.9999905228614807 16.49970054626465 C 0.9999905228614807 19.9161205291748 3.648553848266602 22.72542381286621 7.000092029571533 22.98129081726074 M 7.499690532684326 24.00030136108398 C 3.364350557327271 24.00030136108398 -9.455261533730663e-06 20.63554000854492 -9.455261533730663e-06 16.49970054626465 C -9.455261533730663e-06 12.36435031890869 3.364350557327271 9.000000953674316 7.499690532684326 9.000000953674316 C 7.666030406951904 9.000000953674316 7.834390640258789 9.00554084777832 8.000110626220703 9.016450881958008 L 8.000090599060059 23.98383140563965 C 7.828550338745117 23.99509048461914 7.660500526428223 24.00030136108398 7.499690532684326 24.00030136108398 Z" stroke="none" fill="#eee"/>
      </g>
      <g id="Subtraction_42" data-name="Subtraction 42" transform="translate(-2081 -1367) rotate(180)" fill="none">
        <path d="M7.5,0a7.5,7.5,0,0,0,0,15c.166,0,.335-.006.5-.016V.016C7.828.005,7.66,0,7.5,0Z" stroke="none"/>
        <path d="M 6.999990463256836 1.019013404846191 C 3.648508071899414 1.27487850189209 1 4.084161758422852 1 7.500572204589844 C 1 10.91650581359863 3.648516654968262 13.72540378570557 6.999999046325684 13.98123455047607 L 6.999990463256836 1.019013404846191 M 7.499599933624268 1.9073486328125e-06 C 7.660399913787842 1.9073486328125e-06 7.828440189361572 0.005211830139160156 7.999989986419678 0.01647186279296875 L 8 14.98379230499268 C 7.834280014038086 14.99470233917236 7.665919780731201 15.00024223327637 7.499599933624268 15.00024223327637 C 3.364299774169922 15.00024223327637 0 11.63591194152832 0 7.500572204589844 C 0 3.364751815795898 3.364299774169922 1.9073486328125e-06 7.499599933624268 1.9073486328125e-06 Z" stroke="none" fill="#eee"/>
      </g>
    </g>
  </g>
</svg>
